SplineFontDB: 3.0
FontName: Experiment2-Latin-Bold
FullName: Experiment2-Latin
FamilyName: Experiment2-Latin
Weight: Bold
Copyright: Copyright (c) 2015, Pathum Egodawatta
UComments: "2015-9-29: Created with FontForge (http://fontforge.org)"
Version: 0.001
ItalicAngle: 0
UnderlinePosition: 100
UnderlineWidth: 49
Ascent: 1000
Descent: 0
InvalidEm: 0
LayerCount: 3
Layer: 0 0 "Back" 1
Layer: 1 0 "Fore" 0
Layer: 2 0 "new" 1
PreferredKerning: 4
XUID: [1021 779 -1439063335 14876943]
FSType: 0
OS2Version: 0
OS2_WeightWidthSlopeOnly: 0
OS2_UseTypoMetrics: 1
CreationTime: 1443542790
ModificationTime: 1456496422
PfmFamily: 17
TTFWeight: 400
TTFWidth: 5
LineGap: 122
VLineGap: 0
OS2TypoAscent: 129
OS2TypoAOffset: 1
OS2TypoDescent: 0
OS2TypoDOffset: 1
OS2TypoLinegap: 122
OS2WinAscent: 129
OS2WinAOffset: 1
OS2WinDescent: -161
OS2WinDOffset: 1
HheadAscent: 29
HheadAOffset: 1
HheadDescent: 183
HheadDOffset: 1
OS2CapHeight: 0
OS2XHeight: 0
OS2Vendor: 'PfEd'
MarkAttachClasses: 1
DEI: 91125
LangName: 1033
Encoding: ISO8859-1
Compacted: 1
UnicodeInterp: none
NameList: Adobe Glyph List
DisplaySize: -128
AntiAlias: 1
FitToEm: 1
WinInfo: 24 8 7
BeginPrivate: 0
EndPrivate
Grid
-1000 822.174682617 m 0
 2000 822.174682617 l 1024
-1000 801 m 0
 2000 801 l 1024
-1000 62 m 0
 2000 62 l 1024
2000 766 m 1024
-1000 1143 m 0
 2000 1143 l 1024
665 1500 m 0
 665 -500 l 1024
149 1500 m 0
 149 -500 l 1024
-1000 499 m 0
 2000 499 l 1024
-1000 612 m 0
 2000 612 l 1024
EndSplineSet
AnchorClass2: "thn_ubufibi" "" 
BeginChars: 309 156

StartChar: a
Encoding: 97 97 1
AltUni2: 0000aa.ffffffff.0
GlifName: uni0061
Width: 732
VWidth: 153
Flags: HMW
LayerCount: 3
Back
SplineSet
64 125 m 0
 64 226 164.841796875 302.4609375 319 341 c 0
 411 364 481 369 481 369 c 1
 478 253 l 1
 478 253 420.75390625 290.6015625 344 278 c 0
 277 267 245.766601562 232.139648438 240 183 c 0
 234.469726562 135.880859375 260 95 303 91 c 0
 375.856445312 84.22265625 444 168 450 209 c 1
 480 169 l 1
 480 169 397.490234375 -0.6455078125 248 -13 c 0
 127 -23 64 32 64 125 c 0
140 566 m 1
 209 593 320.379882812 625.049804688 438 617 c 0
 514.716796875 611.749023438 593 575 596 443 c 0
 597.827148438 371.755859375 570.458984375 241.912109375 587.145507812 153.20703125 c 1
 596.874023438 102.396484375 615.504882812 70.30078125 709.044921875 79 c 1
 717.95703125 16 l 1
 699.426757812 9.08203125 600.856445312 -19.521484375 530.892578125 -18.55859375 c 0
 471.123046875 -17.736328125 447.553710938 25.9072265625 446.828125 71 c 0
 446.463836692 93.6605783392 450.887695312 120.245117188 457.926757812 148 c 5
 458.137695312 153.625976562 448.373490958 159.300483874 448.633428106 164.999997415 c 1
 449.940909817 193.668503488 451.853134307 222.974676487 454.1875 250 c 0
 459.987304688 287.05078125 449.223632812 281.6484375 451.1328125 310 c 1
 461.228515625 328.5703125 l 1
 460.490234375 479.5078125 445.510742188 552.623046875 372 548 c 0
 304.037109375 543.725585938 211.358398438 454.2578125 153 333 c 1
 137 410 140 566 140 566 c 1
EndSplineSet
Fore
SplineSet
74 135 m 0
 74 266 164.841796875 312.4609375 319 351 c 0
 411 374 481 379 481 379 c 1
 478 263 l 1
 478 263 419.361328125 303.592773438 344 288 c 0
 286.283203125 276.057617188 255.766601562 222.139648438 250 183 c 0
 243.084960938 136.064453125 269.814282147 100.906514658 313 101 c 0
 415.856445312 101.22265625 494 198 500 239 c 1
 530 199 l 1
 530 199 447.490234375 -10.6455078125 248 -23 c 0
 126.81964301 -30.5047371537 74 42 74 135 c 0
124 556 m 1
 193 593 340.379882812 625.049804688 458 617 c 0
 534.716796875 611.749023438 623 575 626 443 c 0
 627.827148438 371.755859375 600.458984375 241.912109375 617.145507812 153.20703125 c 1
 626.874023438 102.396484375 645.504882812 70.30078125 739.044921875 79 c 1
 747.95703125 16 l 1
 729.426757812 9.08203125 600.856445312 -19.521484375 530.892578125 -18.55859375 c 0
 471.123046875 -17.736328125 447.553710938 25.9072265625 446.828125 71 c 0
 446.463836692 93.6605783392 450.887695312 120.245117188 457.926757812 148 c 1
 458.137695312 153.625976562 448.373490958 159.300483874 448.633428106 164.999997415 c 1
 449.940909817 193.668503488 451.853515625 202.974609375 454.1875 230 c 0
 459.987304688 267.05078125 449.223632812 261.6484375 451.1328125 290 c 1
 461.228515625 328.5703125 l 1
 450.490234375 479.5078125 445.510742188 532.623046875 382 528 c 0
 314.083007812 523.056640625 231.358398438 454.2578125 153 363 c 1
 137 440 124 556 124 556 c 1
EndSplineSet
Layer: 2
SplineSet
124 115 m 4
 124 216 194 296 349 331 c 4
 441 352 515 356 515 356 c 5
 515 273 l 5
 515 273 451 299 374 288 c 4
 297 277 252 218 250 160 c 4
 248 96 286 65 343 61 c 4
 416 56 485 148 491 189 c 5
 517 149 l 5
 517 149 457.270507812 1.779296875 308 -13 c 4
 207 -23 124 22 124 115 c 4
164 529 m 5
 253 576 369.026367188 623.301757812 478 611 c 4
 563.48046875 601.350585938 593 575 596 443 c 4
 597.827148438 371.755859375 580.458984375 212.912109375 597.145507812 124.20703125 c 5
 616.874023438 73.396484375 635.504882812 41.30078125 709.044921875 50 c 5
 717.95703125 11 l 5
 699.426757812 4.08203125 630.856445312 -24.521484375 560.892578125 -23.55859375 c 4
 501.123046875 -22.736328125 478.553710938 15.9072265625 477.828125 61 c 4
 477.018554688 111.359375 486.099609375 191.096679688 491.1875 250 c 4
 496.987304688 287.05078125 486.223632812 281.6484375 488.1328125 310 c 5
 498.228515625 315.5703125 l 5
 497.830078125 370.059570312 498.250976562 418.8359375 493 447 c 4
 482 506 431.1171875 540.692382812 396 548 c 4
 331.982421875 561.321289062 255.228515625 506.926757812 215 391 c 5
 167 382 l 5
 171 449 164 529 164 529 c 5
EndSplineSet
Colour: ff0000
EndChar

StartChar: n
Encoding: 110 110 2
GlifName: uni006E_
Width: 912
VWidth: 79
Flags: HMW
LayerCount: 3
Back
SplineSet
466 74 m 1
 534 74 577 80 589 240 c 0
 594 306 591 368 581 416 c 0
 570 469 543 496 508 494 c 0
 422 490 308 321 296 174 c 1
 254 198 l 1
 295 456 462 610 589 621 c 0
 659 627 721 585 728 522 c 0
 736 452 716 342 713 242 c 0
 710 144 736 75 822 66 c 0
 825 66 827 66 829 66 c 2
 839 0 l 1
 476 0 l 1
 466 74 l 1
20 565 m 1
 165 569 341 618 343 618 c 1
 336 563 300 436 294 289 c 0
 290 191 290 60 394 60 c 0
 397 60 400 60 402 60 c 2
 412 0 l 1
 45 0 l 1
 37 78 l 1
 177 66 191 210 188 288 c 0
 183 408 192 490 28 494 c 1
 20 565 l 1
EndSplineSet
Fore
SplineSet
496 94 m 1
 584 94 607 98 619 258 c 0
 624 324 619 368 609 416 c 0
 598 469 573.947265625 487.150390625 528 484 c 0
 451.921875 478.784179688 338 369 326 222 c 1
 284 246 l 1
 325 504 492.09765625 627.111328125 639 621 c 0
 719.229492188 617.662109375 757 575 764 512 c 0
 772 442 766 360 763 260 c 0
 760 162 796 95 882 86 c 0
 885 86 887 86 889 86 c 2
 899 0 l 1
 506 0 l 1
 496 94 l 1
40 563 m 1
 188.57421875 577.955078125 254.485351562 589.514648438 393 616 c 1
 386 561 347.723424648 454.075273615 344 307 c 0
 340 149 332 90 436 90 c 0
 439 90 442 90 444 90 c 2
 454 0 l 1
 57 0 l 1
 44 98 l 1
 124 96 170.907226562 91.1337890625 193 156 c 0
 213.469726562 216.100585938 207.842773438 377.23046875 194 417 c 0
 173.744140625 475.194335938 135.421875 469.624023438 48 472 c 1
 40 563 l 1
EndSplineSet
Layer: 2
SplineSet
63 595 m 1
 78 594 94 594 111 594 c 0
 205 594 312 608 312 608 c 1
 312 608 295 496 289 470 c 1
 289 461 291 457 294 457 c 0
 301 457 312 478 312 478 c 1
 310 437 300 395 300 351 c 0
 300 327 300 304 300 279 c 0
 300 193 309 100 319 0 c 1
 179 0 l 1
 190 144 203 226 203 318 c 0
 203 443.881835938 207.056640625 530.657226562 70 534 c 1
 63 595 l 1
66 62 m 1
 78 61 89 60 99 60 c 0
 154 60 186 81 189 130 c 1
 307 143 l 1
 307 139 307 135 307 132 c 0
 307 56 356 48 384 48 c 0
 387 48 390 48 392 48 c 1
 402 0 l 1
 74 0 l 1
 66 62 l 1
280 454 m 1
 329 522 439 612 546 612 c 0
 622 612 674 582 688 488 c 0
 691 466 693 408 693 363 c 0
 693 244 692 82 688 0 c 1
 562 0 l 5
 580 79 599 202 599 303 c 4
 599 347 597 387 593 417 c 4
 584 480 533 513 474 513 c 0
 373 513 305 417 305 417 c 1
 280 454 l 1
466 62 m 5
 470 62 488 59 502 59 c 4
 541 59 580 69 586 140 c 5
 692 139 l 1
 689 60 749 50 776 50 c 0
 779 50 781 50 783 50 c 1
 793 0 l 1
 476 0 l 5
 466 62 l 5
EndSplineSet
EndChar

StartChar: d
Encoding: 100 100 3
GlifName: uni0064
Width: 852
VWidth: 79
Flags: HMW
LayerCount: 3
Back
SplineSet
639.733398438 559 m 1
 552.733398438 426 l 1
 552.733398438 426 466.693359375 567.958984375 341.733398438 537 c 0
 289.557617188 524.073242188 206.734375 445.293945312 201.733398438 282 c 0
 198.701171875 182.970703125 229.962890625 97.55078125 314.733398438 92.8623046875 c 0
 405.524414062 87.8408203125 504.716796875 247.961914062 516.733398438 406 c 1
 546.733398438 305 l 1
 518.733398438 62 348.733398438 -39 233.733398438 -32 c 0
 89.0029296875 -23.1904296875 36.884765625 76.6298828125 52.7333984375 247 c 0
 68.7333984375 419 215.7421875 617.1953125 445.733398438 620 c 0
 527.733398438 621 606.733398438 580 639.733398438 559 c 1
350.473632812 834 m 1
 485.818359375 837.5390625 690.241210938 877 692.258789062 877 c 1
 667.198242188 763.950195312 635.561523438 493.952148438 630.298828125 361 c 0
 624.669921875 218.83984375 642.66796875 49.349609375 808.778320312 69 c 1
 817.690429688 0 l 1
 799.16015625 -6.91796875 733.591796875 -35.2001953125 623.625976562 -34.55859375 c 0
 533.853515625 -34.03515625 522.180664062 14.9296875 520.561523438 60 c 0
 518.751953125 110.359375 527.833007812 191.096679688 532.920898438 250 c 0
 538.720703125 287.05078125 510.95703125 281.6484375 512.866210938 310 c 0
 516.337890625 361.587890625 521.537109375 592.171875 515.625976562 655 c 0
 508.73828125 728.215820312 461.962890625 750.124023438 344.20703125 753 c 1
 350.473632812 834 l 1
EndSplineSet
Fore
SplineSet
646.733398438 579 m 1
 562.733398438 396 l 1
 562.733398438 396 500.858398438 561.02734375 363.733398438 522 c 0
 302.849609375 504.671875 251.075195312 445.079101562 241.733398438 322 c 0
 235.740234375 243.041015625 271.22265625 122.779296875 354.733398438 112.862304688 c 0
 436.556344517 103.145740138 531.716796875 177.961914062 553.733398438 336 c 1
 573.733398438 305 l 1
 567.681640625 252.481445312 546.5390625 176.595703125 531.626953125 137 c 1
 531.626953125 137 474.13306433 -32.5322060482 303.733398438 -32 c 0
 158.735810721 -31.5471317813 66.7685546875 75.998046875 72.7333984375 247 c 0
 78.7333984375 419 225.7421875 617.1953125 455.733398438 620 c 0
 537.733398438 621 613.733398438 600 646.733398438 579 c 1
360.473632812 844 m 1
 585.818359375 863.5390625 723.241210938 887 725.258789062 887 c 1
 700.198242188 773.950195312 677.561523438 593.952148438 679.298828125 431 c 0
 680.05078125 360.455078125 676.149414062 253.456054688 692.71875 186 c 0
 709.563476562 117.421875 748.038085938 60.09375 821.778320312 70 c 1
 840.690429688 1 l 1
 822.16015625 -5.91796875 733.591796875 -35.2001953125 623.625976562 -34.55859375 c 0
 533.853515625 -34.03515625 522.180664062 44.9296875 520.561523438 90 c 0
 520.369140625 95.345703125 500.299804688 94.033203125 500.3359375 100 c 1
 500.411132812 112.61328125 500.954101562 113.4765625 501.798828125 128 c 1
 504.318359375 171.340820312 529.514529264 220.56392142 532.920898438 260 c 0
 538.720703125 297.05078125 530.95703125 231.6484375 532.866210938 260 c 0
 536.337890625 311.587890625 521.537109375 612.171875 515.625976562 675 c 0
 508.73828125 748.215820312 481.962890625 770.124023438 364.20703125 763 c 1
 360.473632812 844 l 1
EndSplineSet
Layer: 2
SplineSet
76.7333984375 225 m 4
 75.7333984375 367 156.013671875 535.5703125 354.733398438 586 c 4
 430.665039062 605.26953125 514.733398438 604 554.733398438 589 c 5
 514.733398438 481 l 5
 514.733398438 481 446.296875 544.984375 352.733398438 534 c 4
 269.134765625 524.185546875 201.733398438 434 199.733398438 284 c 4
 198.733398438 181 232.93359375 73.482421875 322.733398438 73 c 4
 433.245117188 72.40625 479.733398438 187 500.733398438 241 c 5
 531.733398438 200 l 5
 499.733398438 126 453.733398438 -3 300.733398438 -13 c 4
 156.041992188 -22.45703125 77.7333984375 64 76.7333984375 225 c 4
375.733398438 830 m 1
 458.733398438 828 629.733398438 850 629.733398438 850 c 1
 587.733398438 672 594.71875 240.2734375 601.733398438 182 c 0
 611.344726562 102.154296875 645.733398438 51 723.733398438 63 c 1
 736.733398438 19 l 1
 684.733398438 -7 628.733398438 -31 570.733398438 -9 c 0
 520.122070312 10.197265625 504.733398438 127 504.733398438 159 c 0
 504.733398438 169 494.331054688 190.08203125 495.733398438 202 c 0
 519.733398438 406 514.733398438 483 500.733398438 687 c 0
 497.512695312 733.931640625 452.733398438 767 380.733398438 766 c 1
 375.733398438 830 l 1
EndSplineSet
EndChar

StartChar: h
Encoding: 104 104 4
GlifName: uni0068
Width: 806
VWidth: 79
Flags: HMW
LayerCount: 3
Back
SplineSet
28 61 m 5
 106.303710938 56.87890625 138.954101562 90.62109375 145 142 c 4
 169 346 161.549246063 472.846589753 150 677 c 4
 146.779296875 733.931640625 82 767 10 766 c 5
 5 830 l 5
 88 828 289 850 289 850 c 5
 247 672 260.985351562 230.2734375 268 172 c 4
 278.414226102 85.4842557894 315.296263572 48.2942368651 364 51 c 5
 374 0 l 5
 38 0 l 5
 28 61 l 5
427 58 m 1
 504.83984375 58 542.264648438 67.4052734375 554.255859375 237 c 0
 558.90234375 302.711914062 556.352539062 358.310546875 551.221679688 426 c 0
 547.104492188 480.321289062 522.048828125 512.572265625 479.037109375 512.791992188 c 0
 373.534179688 513.331054688 264.095703125 321.228515625 261.935546875 214 c 1
 229.513671875 238 l 1
 270.052734375 486 415.838867188 611.306640625 542.890625 611 c 0
 602.693359375 610.85546875 652.173828125 575.135742188 659.124023438 512 c 0
 666.784179688 442.409179688 656.837890625 342.143554688 653.567382812 242 c 0
 650.374023438 144.241210938 659.517578125 50 746 50 c 0
 749 50 751 50 753 50 c 2
 763 0 l 1
 437 0 l 1
 427 58 l 1
EndSplineSet
Fore
SplineSet
28 61 m 5
 106.303710938 56.87890625 138.954101562 90.62109375 145 142 c 4
 169 346 161.549246063 472.846589753 150 677 c 4
 146.779296875 733.931640625 82 767 10 766 c 5
 5 830 l 5
 88 828 289 850 289 850 c 5
 247 672 260.985351562 230.2734375 268 172 c 4
 278.414226102 85.4842557894 315.296263572 48.2942368651 364 51 c 5
 374 0 l 5
 38 0 l 5
 28 61 l 5
427 58 m 1
 504.83984375 58 542.264648438 67.4052734375 554.255859375 237 c 0
 558.90234375 302.711914062 556.352539062 358.310546875 551.221679688 426 c 0
 547.104492188 480.321289062 522.048828125 512.572265625 479.037109375 512.791992188 c 0
 373.534179688 513.331054688 264.095703125 321.228515625 261.935546875 214 c 1
 229.513671875 238 l 1
 270.052734375 486 415.838867188 611.306640625 542.890625 611 c 0
 602.693359375 610.85546875 652.173828125 575.135742188 659.124023438 512 c 0
 666.784179688 442.409179688 656.837890625 342.143554688 653.567382812 242 c 0
 650.374023438 144.241210938 659.517578125 50 746 50 c 0
 749 50 751 50 753 50 c 2
 763 0 l 1
 437 0 l 1
 427 58 l 1
EndSplineSet
Layer: 2
SplineSet
241 454 m 1
 290 522 400 612 507 612 c 0
 583 612 639 582 653 488 c 4
 656 466 658 408 658 363 c 4
 658 244 657 82 653 0 c 5
 524 0 l 1
 542 79 561 202 561 303 c 0
 561 347 559 387 555 417 c 0
 546 480 494 513 435 513 c 0
 334 513 266 417 266 417 c 1
 241 454 l 1
428 62 m 1
 432 62 450 59 464 59 c 0
 503 59 542 69 548 140 c 1
 657 139 l 5
 654 60 714 50 741 50 c 4
 744 50 746 50 748 50 c 5
 758 0 l 5
 438 0 l 1
 428 62 l 1
36 61 m 1
 114.303710938 56.87890625 146.954101562 90.62109375 153 142 c 0
 177 346 172 483 158 687 c 0
 154.779296875 733.931640625 110 767 38 766 c 1
 33 830 l 1
 116 828 294 850 294 850 c 1
 252 672 265.985351562 230.2734375 273 172 c 0
 283.4140625 85.484375 320.295898438 48.2939453125 369 51 c 1
 379 0 l 1
 46 0 l 1
 36 61 l 1
EndSplineSet
EndChar

StartChar: e
Encoding: 101 101 5
GlifName: uni0065
Width: 679
VWidth: 153
Flags: HMW
LayerCount: 3
Back
SplineSet
62 223 m 0
 61.796875 453 205.5859375 590.431640625 329.283203125 609 c 0
 530.950195312 639.272460938 622.499023438 480.48828125 614.921875 292 c 1
 446.505859375 277.5625 354.557617188 280.272460938 212.12109375 269.376953125 c 1
 216.295898438 176.286132812 262.697265625 100.66796875 381.146484375 89 c 0
 484.3828125 78.830078125 548.541015625 134 550.541015625 134 c 2
 572.720703125 76 l 1
 554.0390625 49 466.465820312 -30.6279296875 339.411132812 -33 c 0
 232.303710938 -35 62.1796875 19 62 223 c 0
213.6640625 338.612304688 m 1
 301.481445312 341.528320312 378.212890625 345.954101562 449.921875 350 c 5
 456.201171875 467.8125 383.069143345 553.278602756 319.921875 537.145507812 c 4
 255.6328125 520.720703125 215.4921875 442.569335938 213.6640625 338.612304688 c 1
EndSplineSet
Fore
SplineSet
52 223 m 0
 51.796875 453 205.5859375 590.431640625 329.283203125 609 c 0
 530.950195312 639.272460938 642.499023438 469.48828125 614.921875 271 c 1
 446.505859375 259.5625 375.557617188 259.272460938 233.12109375 248.376953125 c 1
 237.295898438 155.286132812 310.697265625 88.66796875 389.146484375 77 c 0
 491.75390625 61.7392578125 548.541015625 124 550.541015625 124 c 2
 592.720703125 64 l 1
 574.0390625 37 486.465820312 -53.6279296875 339.411132812 -53 c 0
 232.285721776 -52.5425699988 52.1796875 19 52 223 c 0
223.6640625 338.612304688 m 1
 311.481445312 341.528320312 358.212890625 345.954101562 429.921875 350 c 1
 436.201171875 467.8125 362.3046875 540.01953125 299.921875 521.145507812 c 0
 245.6328125 504.720703125 215.4921875 432.569335938 223.6640625 338.612304688 c 1
EndSplineSet
Layer: 2
SplineSet
63.921875 240 m 0
 50.921875 479 193.891601562 599.38671875 320.921875 609 c 4
 505.921875 623 593.921875 527 575.921875 298 c 1
 173.921875 296 l 1
 143.921875 344 l 1
 400.921875 367 l 1
 460.921875 368 l 1
 450.921875 507 366.000976562 554.162109375 306.921875 549 c 4
 203.921875 540 172.921875 452 175.921875 319 c 4
 177.921875 218 219.247070312 79.7333984375 356.921875 53 c 0
 459.921875 33 549.921875 102 551.921875 102 c 1
 575.921875 68 l 1
 556.921875 51 471.921875 -19 344.921875 -21 c 0
 217.921875 -23 74.921875 36 63.921875 240 c 0
EndSplineSet
EndChar

StartChar: i
Encoding: 105 105 6
GlifName: uni0069
Width: 514
VWidth: 79
Flags: HMW
LayerCount: 3
Back
SplineSet
-35.23046875 565 m 1
 110.114257812 568.5390625 295.536132812 618 297.553710938 618 c 1
 290.262695312 563.265625 255.2265625 436.028320312 249.40625 289 c 0
 245.506835938 190.521484375 244.844726562 68 349 68 c 0
 352 68 355 68 357 68 c 2
 367 0 l 1
 -10 0 l 1
 -18 86 l 1
 121.857421875 74.345703125 136.365234375 210.063476562 133.2890625 288 c 0
 128.53515625 408.432617188 136.56640625 489.993164062 -27.4970703125 494 c 1
 -35.23046875 565 l 1
78.6796875 784.48046875 m 0
 78.6796875 839.5 123.219726562 876.1796875 176.9296875 876.1796875 c 0
 242.4296875 876.1796875 288.280273438 825.08984375 288.280273438 770.0703125 c 0
 288.280273438 715.049804688 230.639648438 678.370117188 176.9296875 678.370117188 c 0
 123.219726562 678.370117188 78.6796875 729.459960938 78.6796875 784.48046875 c 0
EndSplineSet
Fore
SplineSet
40 567 m 1
 188.57421875 581.955078125 244.485351562 593.514648438 383 620 c 1
 370 565 329.515625 479.979492188 336 223 c 0
 337.716796875 154.955078125 370 93 474 93 c 0
 477 93 480 93 482 93 c 2
 497 0 l 1
 60 0 l 1
 52 98 l 1
 122 96 171.291015625 114.151367188 187 192 c 0
 198.577148438 249.373046875 197.98828125 380.961914062 184 420 c 0
 162.04296875 481.27734375 98.1787109375 473.556640625 48 476 c 1
 40 567 l 1
118.6796875 784.48046875 m 0
 118.6796875 839.5 163.219726562 876.1796875 216.9296875 876.1796875 c 0
 282.4296875 876.1796875 328.280273438 825.08984375 328.280273438 770.0703125 c 0
 328.280273438 715.049804688 270.639648438 678.370117188 216.9296875 678.370117188 c 0
 163.219726562 678.370117188 118.6796875 729.459960938 118.6796875 784.48046875 c 0
EndSplineSet
Layer: 2
SplineSet
-28 585 m 1
 -13 584 3 584 20 584 c 0
 114 584 216 598 216 598 c 1
 200.719726562 358.366210938 199.760742188 232.392578125 223 0 c 1
 88 0 l 1
 99 144 113 226 113 318 c 0
 113 443.881835938 116.056640625 520.657226562 -21 524 c 1
 -28 585 l 1
-16 62 m 5
 -4 61 7 60 17 60 c 4
 72 60 97 81 100 130 c 1
 210 143 l 1
 210 139 209.608398438 134.974609375 210 132 c 0
 220 56 270 48 298 48 c 0
 301 48 304 48 306 48 c 1
 316 0 l 1
 -8 0 l 5
 -16 62 l 5
74 782 m 0
 74 824 108 852 149 852 c 0
 199 852 224 813 224 771 c 0
 224 729 190 701 149 701 c 0
 108 701 74 740 74 782 c 0
EndSplineSet
EndChar

StartChar: s
Encoding: 115 115 7
GlifName: uni0073
Width: 574
VWidth: 153
Flags: HMW
LayerCount: 3
Back
SplineSet
63.4794921875 -2 m 1
 56.353515625 33 55.376953125 137 67.5888671875 197 c 1
 106.40625 152.356445312 229.57421875 73.4296875 302.787109375 70 c 0
 374.857421875 66.6240234375 376.762695312 106.709960938 367.7109375 151 c 0
 348.174804688 246.59375 116.37109375 227.981445312 91.6376953125 371 c 0
 68.3046875 505.923828125 218.186523438 611.249023438 355.248046875 609.802734375 c 0
 396.98046875 609.362304688 449.4921875 608.392578125 491.23046875 587 c 1
 495.196289062 519 485.849609375 434 468.029296875 390 c 1
 423.344726562 444 336.499023438 541.821289062 260.838867188 532 c 0
 205.586914062 524.828125 196.712890625 490.41796875 228.633789062 455 c 0
 307.1171875 367.91796875 555.977539062 336.6484375 500.788085938 127.602539062 c 0
 474.095703125 26.4970703125 355.685546875 -25 246.43359375 -25 c 0
 133.43359375 -25 63.4794921875 -2 63.4794921875 -2 c 1
EndSplineSet
Fore
SplineSet
63.4794921875 -2 m 1
 56.353515625 33 55.376953125 177 67.5888671875 237 c 1
 106.40625 182.356445312 229.647460938 84.7421875 302.787109375 80 c 0
 354.857421875 76.6240234375 361.046756745 112.283924737 337.7109375 151 c 0
 298.174804688 216.59375 113.253602788 227.477177678 91.6376953125 371 c 0
 68.3046875 525.923828125 218.274414062 614.68359375 355.248046875 619.802734375 c 0
 396.98046875 621.362304688 460.4921875 611.392578125 502.23046875 597 c 1
 506.196289062 529 505.849609375 434 488.029296875 390 c 1
 423.344726562 454 346.889648438 525.8984375 270.838867188 522 c 4
 235.520507812 520.189453125 196.712890625 500.41796875 228.633789062 465 c 0
 307.1171875 377.91796875 555.977539062 336.6484375 500.788085938 127.602539062 c 0
 474.095703125 26.4970703125 385.685546875 -32 276.43359375 -32 c 0
 163.43359375 -32 63.4794921875 -2 63.4794921875 -2 c 1
EndSplineSet
Layer: 2
SplineSet
63 7 m 1
 59 42 61 105 70 165 c 1
 153 156 l 1
 156 109 165 65 189 30 c 1
 148 41 136 95 129 138 c 5
 161 104 201 37 287 36 c 0
 347 35 382.681640625 81.4873046875 387 126 c 0
 400 260 112 249 88 412 c 0
 72 516 159 609 316 606 c 0
 410 604 472 580 472 580 c 1
 476 542 474 471 469 437 c 1
 389 435 l 1
 388 472 373 533 352 581 c 2
 407 473 l 1
 393 489 342 544 258 545 c 0
 202 545 178 512 178 466 c 0
 178 348.314453125 474 349 490 184 c 0
 501 71 403 -25 259 -25 c 0
 146 -25 63 7 63 7 c 1
EndSplineSet
EndChar

StartChar: o
Encoding: 111 111 8
AltUni2: 0000ba.ffffffff.0
GlifName: o
Width: 662
VWidth: 153
Flags: HMW
LayerCount: 3
Back
SplineSet
44 246 m 0
 45 90 121 -15 299 -18 c 0
 522 -22 611 148 616 324 c 0
 622 531 516 614 362 615 c 0
 179 616 42 466 44 246 c 0
161 298 m 4
 166 466 237 532 293 546 c 0
 401.122070312 573.030273438 503 476 508 308 c 0
 511.86916547 177.99604022 463 60 366 49 c 0
 252 36 156.178410471 135.994591836 161 298 c 4
EndSplineSet
Fore
SplineSet
44 246 m 0
 45 90 121 -15 299 -18 c 0
 522 -22 611 148 616 324 c 0
 622 531 516 614 362 615 c 0
 179 616 42 466 44 246 c 0
161 298 m 4
 166 466 237 532 293 546 c 0
 401.122070312 573.030273438 503 476 508 308 c 0
 511.86916547 177.99604022 463 60 366 49 c 0
 252 36 156.178410471 135.994591836 161 298 c 4
EndSplineSet
Layer: 2
SplineSet
44 246 m 0
 45 90 121 -15 299 -18 c 0
 522 -22 611 148 616 324 c 0
 622 531 516 614 362 615 c 0
 179 616 42 466 44 246 c 0
161 298 m 4
 166 466 237 532 293 546 c 0
 401.122070312 573.030273438 503 476 508 308 c 0
 511.86916547 177.99604022 463 60 366 49 c 0
 252 36 156.178410471 135.994591836 161 298 c 4
EndSplineSet
EndChar

StartChar: b
Encoding: 98 98 9
GlifName: b
Width: 804
VWidth: 79
Flags: HMW
LayerCount: 3
Back
SplineSet
165 -1 m 1
 282 172 l 1
 282 172 348.040039062 30.041015625 473 61 c 0
 525.17578125 73.9267578125 597.999023438 142.706054688 603 306 c 0
 606.032226562 405.029296875 574.770507812 490.44921875 490 495.137695312 c 0
 399.208984375 500.159179688 300.016601562 340.038085938 288 182 c 1
 258 283 l 1
 286 526 466.032226562 627.517578125 581 620 c 0
 715.731445312 611.190429688 767.848632812 511.370117188 752 341 c 0
 736 169 588.991210938 -29.1953125 359 -32 c 0
 277 -33 198 -22 165 -1 c 1
187.845703125 285 m 0
 195.366210938 426.629882812 245.365234375 760.477539062 7 746 c 1
 2 830 l 1
 205 828 346 874 346 874 c 1
 304 696 302.009765625 300.618164062 305 242 c 0
 309.4140625 155.484375 292.295898438 38.2939453125 381 31 c 1
 431 0 l 1
 165 0 l 1
 170.33984375 86.732421875 180.056640625 138.303710938 187.845703125 285 c 0
EndSplineSet
Fore
SplineSet
138.266601562 -3 m 1
 247.266601562 216 l 1
 247.266601562 216 343.306640625 46.041015625 478.266601562 92 c 0
 529.150390625 109.328125 572.265625 166.706054688 578.266601562 300 c 0
 582.72265625 398.975585938 540.037109375 474.44921875 475.266601562 479.137695312 c 0
 384.57421875 485.702148438 315.283203125 384.038085938 303.266601562 226 c 1
 262.266601562 297 l 1
 290.266601562 540 461.391601562 622.8203125 576.266601562 614 c 0
 690.997070312 605.190429688 773.115234375 505.370117188 747.266601562 335 c 0
 721.354492188 164.211914062 574.038085938 -7.5556640625 344.266601562 -18 c 0
 256.266601562 -22 181.266601562 -20 138.266601562 -3 c 1
148.299804688 644 m 0
 140.532226562 744.111328125 92.4208984375 763.6171875 -13 756 c 1
 -8 840 l 5
 195 852 346 874 346 874 c 1
 304 696 301.009765625 343.618164062 304 285 c 0
 308.4140625 198.484375 302.295898438 118.293945312 331 41 c 1
 411 10 l 1
 138 -3 l 1
 165.0625 150.014648438 163.962890625 442.125976562 148.299804688 644 c 0
EndSplineSet
Layer: 2
SplineSet
180 687 m 0
 176.779296875 733.931640625 132 767 60 766 c 1
 55 830 l 1
 138 828 309 850 309 850 c 1
 267 672 270.985351562 290.2734375 288 82 c 0
 295.094726562 -4.8505859375 285.295898438 48.2939453125 334 51 c 1
 414 0 l 1
 168 21 l 1
 191.463867188 198.8203125 195.702148438 458.196289062 180 687 c 0
170 22 m 5
 242 152 l 5
 242 152 327.483398438 38.1171875 445 56 c 4
 537 70 595 176 596 339 c 4
 596.840820312 476.000976562 515 545 423 524 c 4
 367.419921875 511.313476562 312 458 276 374 c 5
 246 415 l 5
 294 548 409 610 494 613 c 4
 638.91015625 618.114257812 706 515 700 344 c 4
 694 172 611 -10 381 -12 c 4
 283 -13 213 5 170 22 c 5
EndSplineSet
EndChar

StartChar: r
Encoding: 114 114 10
GlifName: r
Width: 594
VWidth: 79
Flags: HMW
LayerCount: 3
Back
SplineSet
49 595 m 1
 64 594 80 594 97 594 c 0
 191 594 293 608 293 608 c 1
 293 608 276 486 270 460 c 1
 293 468 l 1
 290 402 280 349 280 279 c 0
 280 193 291 100 304 0 c 1
 165 0 l 1
 176 144 191 206 191 328 c 0
 191 455.258495323 194.318280091 530.626383412 56 534 c 1
 49 595 l 1
52 63 m 1
 64 62 75 61 85 61 c 0
 140 61 174 82 177 131 c 1
 288 150 l 1
 288 146 288 142 288 139 c 0
 288 63 357 49 405 49 c 0
 408 49 411 49 413 49 c 1
 423 1 l 1
 60 1 l 1
 52 63 l 1
215 350 m 1
 224 454 352 563 470 601 c 0
 528 620 573 609 573 609 c 1
 575 571 565 461 558 416 c 1
 498 422 l 1
 477 465 448 504 399 538 c 1
 520 475 l 1
 520 475 456 504 384 483 c 0
 318 464 261 416 259 295 c 1
 215 350 l 1
461 429 m 1049
EndSplineSet
Fore
SplineSet
49 595 m 1
 64 594 80 594 97 594 c 0
 191 594 293 608 293 608 c 1
 293 608 276 486 270 460 c 1
 293 468 l 1
 290 402 280 349 280 279 c 0
 280 193 291 100 304 0 c 1
 165 0 l 1
 176 144 191 206 191 328 c 0
 191 455.258495323 194.318280091 530.626383412 56 534 c 1
 49 595 l 1
52 63 m 1
 64 62 75 61 85 61 c 0
 140 61 174 82 177 131 c 1
 288 150 l 1
 288 146 288 142 288 139 c 0
 288 63 357 49 405 49 c 0
 408 49 411 49 413 49 c 1
 423 1 l 1
 60 1 l 1
 52 63 l 1
215 350 m 1
 224 454 352 563 470 601 c 0
 528 620 573 609 573 609 c 1
 575 571 565 461 558 416 c 1
 498 422 l 1
 477 465 448 504 399 538 c 1
 520 475 l 1
 520 475 456 504 384 483 c 0
 318 464 261 416 259 295 c 1
 215 350 l 1
461 429 m 1049
EndSplineSet
Layer: 2
SplineSet
49 595 m 1
 64 594 80 594 97 594 c 0
 191 594 293 608 293 608 c 1
 293 608 276 486 270 460 c 1
 293 468 l 1
 290 402 280 349 280 279 c 0
 280 193 291 100 304 0 c 1
 165 0 l 1
 176 144 191 206 191 328 c 0
 191 455.258495323 194.318280091 530.626383412 56 534 c 1
 49 595 l 1
52 63 m 1
 64 62 75 61 85 61 c 0
 140 61 174 82 177 131 c 1
 288 150 l 1
 288 146 288 142 288 139 c 0
 288 63 357 49 405 49 c 0
 408 49 411 49 413 49 c 1
 423 1 l 1
 60 1 l 1
 52 63 l 1
215 350 m 1
 224 454 352 563 470 601 c 0
 528 620 573 609 573 609 c 1
 575 571 565 461 558 416 c 1
 498 422 l 1
 477 465 448 504 399 538 c 1
 520 475 l 1
 520 475 456 504 384 483 c 0
 318 464 261 416 259 295 c 1
 215 350 l 1
461 429 m 1049
EndSplineSet
Colour: ff0000
EndChar

StartChar: period
Encoding: 46 46 11
GlifName: period
Width: 277
VWidth: 79
Flags: HMW
LayerCount: 3
Back
SplineSet
65.568359375 51.4892578125 m 0
 65.568359375 103.21875 106.767578125 136.37890625 157.268554688 136.37890625 c 0
 218.404296875 136.37890625 248.969726562 93.9345703125 248.969726562 42.2060546875 c 0
 248.969726562 -9.5224609375 207.772460938 -44.009765625 157.268554688 -44.009765625 c 0
 106.767578125 -44.009765625 65.568359375 -0.23828125 65.568359375 51.4892578125 c 0
EndSplineSet
Fore
SplineSet
65.568359375 51.4892578125 m 0
 65.568359375 103.21875 106.767578125 136.37890625 157.268554688 136.37890625 c 0
 218.404296875 136.37890625 248.969726562 93.9345703125 248.969726562 42.2060546875 c 0
 248.969726562 -9.5224609375 207.772460938 -44.009765625 157.268554688 -44.009765625 c 0
 106.767578125 -44.009765625 65.568359375 -0.23828125 65.568359375 51.4892578125 c 0
EndSplineSet
Layer: 2
SplineSet
65.568359375 51.4892578125 m 0
 65.568359375 103.21875 106.767578125 136.37890625 157.268554688 136.37890625 c 0
 218.404296875 136.37890625 248.969726562 93.9345703125 248.969726562 42.2060546875 c 0
 248.969726562 -9.5224609375 207.772460938 -44.009765625 157.268554688 -44.009765625 c 0
 106.767578125 -44.009765625 65.568359375 -0.23828125 65.568359375 51.4892578125 c 0
EndSplineSet
EndChar

StartChar: t
Encoding: 116 116 12
GlifName: t
Width: 475
VWidth: 79
Flags: HMW
LayerCount: 3
Back
SplineSet
10 584 m 5
 44 586 108 583 130 584 c 5
 130 584 135 678 137 767 c 5
 246 792 l 5
 244.51953125 533.103515625 141.453178763 -39.9326422166 425 95 c 1
 451 60 l 1
 430 36 359 -12 278 -13 c 0
 194 -14 117 42 121 140 c 4
 123 193 134 340 127 498 c 5
 127 498 93 517 25 517 c 5
 10 584 l 5
132 584 m 1
 154 585 177 583 202 584 c 1
 397 584 l 1
 409 520 l 1
 232 505 l 1
 207 506 174 465 146 485 c 1
 132 584 l 1
EndSplineSet
Fore
SplineSet
10 584 m 5
 44 586 108 583 130 584 c 5
 130 584 135 678 137 767 c 5
 246 792 l 5
 244.51953125 533.103515625 141.453178763 -39.9326422166 425 95 c 1
 451 60 l 1
 430 36 359 -12 278 -13 c 0
 194 -14 117 42 121 140 c 4
 123 193 134 340 127 498 c 5
 127 498 93 517 25 517 c 5
 10 584 l 5
132 584 m 1
 154 585 177 583 202 584 c 1
 397 584 l 1
 409 520 l 1
 232 505 l 1
 207 506 174 465 146 485 c 1
 132 584 l 1
EndSplineSet
Layer: 2
SplineSet
10 584 m 5
 44 586 108 583 130 584 c 5
 130 584 135 678 137 767 c 5
 246 792 l 5
 244.51953125 533.103515625 141.453178763 -39.9326422166 425 95 c 1
 451 60 l 1
 430 36 359 -12 278 -13 c 0
 194 -14 117 42 121 140 c 4
 123 193 134 340 127 498 c 5
 127 498 93 517 25 517 c 5
 10 584 l 5
132 584 m 1
 154 585 177 583 202 584 c 1
 397 584 l 1
 409 520 l 1
 232 505 l 1
 207 506 174 465 146 485 c 1
 132 584 l 1
EndSplineSet
EndChar

StartChar: p
Encoding: 112 112 13
GlifName: p
Width: 821
VWidth: 79
Flags: HMW
LayerCount: 3
Back
SplineSet
20 585 m 1
 165.344726562 588.5390625 360.766601562 638 362.784179688 638 c 1
 358.327148438 604.54296875 313.50390625 454.319335938 301.323242188 309 c 1
 299.88671875 291.865234375 318.487304688 304.798828125 317.145507812 288 c 1
 311.251953125 214.1953125 316.479492188 115.557617188 314.63671875 69 c 0
 310.737304688 -29.478515625 310.075195312 -150 444.23046875 -150 c 0
 447.23046875 -150 450.23046875 -150 452.23046875 -150 c 2
 452.23046875 -220 l 1
 45.23046875 -220 l 1
 37.23046875 -142 l 1
 177.087890625 -153.654296875 186.57567295 -9.97252755265 188.51953125 68 c 0
 193.765625 278.432617188 251.796875 512.993164062 27.7333984375 507 c 1
 20 585 l 1
202.23046875 39 m 1
 299.23046875 172 l 1
 299.23046875 172 365.270507812 30.041015625 490.23046875 61 c 0
 542.40625 73.9267578125 615.229492188 142.706054688 620.23046875 306 c 0
 623.262695312 405.029296875 592.000976562 490.44921875 507.23046875 495.137695312 c 0
 416.439453125 500.159179688 313.247070312 340.038085938 301.23046875 182 c 1
 275.23046875 283 l 1
 303.23046875 526 483.262695312 627.517578125 598.23046875 620 c 0
 732.961914062 611.190429688 785.079101562 511.370117188 769.23046875 341 c 0
 753.23046875 169 626.221679688 -19.1953125 396.23046875 -22 c 0
 314.23046875 -23 235.23046875 18 202.23046875 39 c 1
EndSplineSet
Fore
SplineSet
20 585 m 1
 165.344726562 588.5390625 360.766601562 638 362.784179688 638 c 1
 358.327148438 604.54296875 313.50390625 454.319335938 301.323242188 309 c 1
 299.88671875 291.865234375 318.487304688 304.798828125 317.145507812 288 c 1
 311.251953125 214.1953125 316.479492188 115.557617188 314.63671875 69 c 0
 310.737304688 -29.478515625 310.075195312 -150 444.23046875 -150 c 0
 447.23046875 -150 450.23046875 -150 452.23046875 -150 c 2
 452.23046875 -220 l 1
 45.23046875 -220 l 1
 37.23046875 -142 l 1
 177.087890625 -153.654296875 186.57567295 -9.97252755265 188.51953125 68 c 0
 193.765625 278.432617188 251.796875 512.993164062 27.7333984375 507 c 1
 20 585 l 1
202.23046875 39 m 1
 299.23046875 172 l 1
 299.23046875 172 365.270507812 30.041015625 490.23046875 61 c 0
 542.40625 73.9267578125 615.229492188 142.706054688 620.23046875 306 c 0
 623.262695312 405.029296875 592.000976562 490.44921875 507.23046875 495.137695312 c 0
 416.439453125 500.159179688 313.247070312 340.038085938 301.23046875 182 c 1
 275.23046875 283 l 1
 303.23046875 526 483.262695312 627.517578125 598.23046875 620 c 0
 732.961914062 611.190429688 785.079101562 511.370117188 769.23046875 341 c 0
 753.23046875 169 626.221679688 -19.1953125 396.23046875 -22 c 0
 314.23046875 -23 235.23046875 18 202.23046875 39 c 1
EndSplineSet
Layer: 2
SplineSet
217.23046875 32 m 5
 289.23046875 162 l 5
 289.23046875 162 364.713867188 38.1171875 482.23046875 56 c 0
 574.23046875 70 632.23046875 176 633.23046875 339 c 0
 634.071289062 476.000976562 552.23046875 545 460.23046875 524 c 0
 404.650390625 511.313476562 349.23046875 458 313.23046875 374 c 1
 283.23046875 415 l 1
 331.23046875 548 446.23046875 610 531.23046875 613 c 0
 676.140625 618.114257812 743.23046875 515 737.23046875 344 c 0
 731.23046875 172 648.23046875 -10 418.23046875 -12 c 0
 320.23046875 -13 260.23046875 15 217.23046875 32 c 5
74.23046875 595 m 1
 89.23046875 594 105.23046875 594 122.23046875 594 c 0
 216.23046875 594 328.23046875 608 328.23046875 608 c 1
 328.23046875 608 311.23046875 506 305.23046875 480 c 1
 328.23046875 488 l 1
 325.23046875 422 317.23046875 309 317.23046875 239 c 0
 317.23046875 153 322.23046875 -117 335.23046875 -217 c 1
 190.23046875 -217 l 1
 201.23046875 -73 217.23046875 166 217.23046875 258 c 0
 217.23046875 448.081054688 218.568359375 537.791015625 81.23046875 534 c 1
 74.23046875 595 l 1
77.23046875 -156 m 1
 89.23046875 -157 100.23046875 -158 110.23046875 -158 c 0
 165.23046875 -158 194.23046875 -150 197.23046875 -101 c 1
 326.23046875 -82 l 1
 326.23046875 -86 326.23046875 -90 326.23046875 -93 c 0
 326.23046875 -169 385.23046875 -170 433.23046875 -170 c 0
 436.23046875 -170 439.23046875 -170 441.23046875 -170 c 1
 451.23046875 -218 l 1
 85.23046875 -218 l 1
 77.23046875 -156 l 1
EndSplineSet
EndChar

StartChar: v
Encoding: 118 118 14
GlifName: v
Width: 641
VWidth: 79
Flags: HMW
LayerCount: 3
Back
SplineSet
660 538 m 1
 590.022460938 535.735351562 582.594321118 496.991141736 564.810546875 455.861328125 c 0
 487.965836871 278.137041014 404.959960938 87.9033203125 367.661132812 7.6162109375 c 9
 253.399414062 -25.650390625 l 1
 214.270507812 85.927734375 181.459960938 205.581054688 101.497070312 442.43359375 c 5
 82.3037109375 506.984375 56.650390625 532.875976562 0 532 c 1
 -14 596 l 1
 100 590.78125 184 592.904296875 298 596 c 1
 312 542 l 1
 236 536 197 525 212 460 c 1
 211.7265625 459.962890625 l 1
 229.463867188 361.939453125 262.78125 251.842773438 291.678710938 147 c 1
 294.244140625 124.912109375 313 56 310.991210938 62 c 1
 340.858398438 133.987304688 426.057617188 302.979492188 489.733398438 468.791992188 c 1
 507.560546875 526.806640625 455.559570312 535.975585938 388 533 c 1
 379 596 l 1
 475.666992188 590.463867188 552.333007812 592.002929688 649 596 c 1
 660 538 l 1
EndSplineSet
Fore
SplineSet
660 538 m 1
 590.022460938 535.735351562 582.594321118 496.991141736 564.810546875 455.861328125 c 0
 487.965836871 278.137041014 404.959960938 87.9033203125 367.661132812 7.6162109375 c 9
 253.399414062 -25.650390625 l 1
 214.270507812 85.927734375 181.459960938 205.581054688 101.497070312 442.43359375 c 5
 82.3037109375 506.984375 56.650390625 532.875976562 0 532 c 1
 -14 596 l 1
 100 590.78125 184 592.904296875 298 596 c 1
 312 542 l 1
 236 536 197 525 212 460 c 1
 211.7265625 459.962890625 l 1
 229.463867188 361.939453125 262.78125 251.842773438 291.678710938 147 c 1
 294.244140625 124.912109375 313 56 310.991210938 62 c 1
 340.858398438 133.987304688 426.057617188 302.979492188 489.733398438 468.791992188 c 1
 507.560546875 526.806640625 455.559570312 535.975585938 388 533 c 1
 379 596 l 1
 475.666992188 590.463867188 552.333007812 592.002929688 649 596 c 1
 660 538 l 1
EndSplineSet
Layer: 2
SplineSet
660 538 m 1
 590.022460938 535.735351562 582.594321118 496.991141736 564.810546875 455.861328125 c 0
 487.965836871 278.137041014 404.959960938 87.9033203125 367.661132812 7.6162109375 c 9
 253.399414062 -25.650390625 l 1
 214.270507812 85.927734375 181.459960938 205.581054688 101.497070312 442.43359375 c 5
 82.3037109375 506.984375 56.650390625 532.875976562 0 532 c 1
 -14 596 l 1
 100 590.78125 184 592.904296875 298 596 c 1
 312 542 l 1
 236 536 197 525 212 460 c 1
 211.7265625 459.962890625 l 1
 229.463867188 361.939453125 262.78125 251.842773438 291.678710938 147 c 1
 294.244140625 124.912109375 313 56 310.991210938 62 c 1
 340.858398438 133.987304688 426.057617188 302.979492188 489.733398438 468.791992188 c 1
 507.560546875 526.806640625 455.559570312 535.975585938 388 533 c 1
 379 596 l 1
 475.666992188 590.463867188 552.333007812 592.002929688 649 596 c 1
 660 538 l 1
EndSplineSet
EndChar

StartChar: m
Encoding: 109 109 15
GlifName: m
Width: 1219
VWidth: 79
Flags: HMW
LayerCount: 3
Back
SplineSet
829 74 m 1
 896.83984375 74 940.264648438 80.4052734375 952.255859375 240 c 0
 957.19140625 305.690429688 954.352539062 368.310546875 944.221679688 416 c 0
 932.901367188 469.288085938 905.961914062 495.533203125 871.037109375 493.791992188 c 0
 785.465820312 489.525390625 681.095703125 321.228515625 668.935546875 174 c 1
 626.513671875 198 l 1
 667.052734375 456 825.283203125 610.37890625 951.890625 621 c 0
 1021.69335938 626.85546875 1074.17382812 585.135742188 1081.12402344 522 c 0
 1088.78417969 452.409179688 1068.83789062 342.143554688 1065.56738281 242 c 0
 1062.37402344 144.241210938 1078.51757812 75 1165 66 c 0
 1167.98339844 65.689453125 1170 66 1172 66 c 2
 1182 0 l 1
 839 0 l 1
 829 74 l 1
430 74 m 1
 497.83984375 74 541.264648438 80.4052734375 553.255859375 240 c 0
 558.19140625 305.690429688 555.352539062 368.310546875 545.221679688 416 c 0
 533.901367188 469.288085938 506.961914062 495.533203125 472.037109375 493.791992188 c 0
 386.465820312 489.525390625 291.095703125 321.228515625 278.935546875 174 c 1
 236.513671875 198 l 1
 277.052734375 456 426.283203125 610.37890625 552.890625 621 c 0
 622.693359375 626.85546875 675.173828125 585.135742188 682.124023438 522 c 0
 689.784179688 452.409179688 669.837890625 342.143554688 666.567382812 242 c 0
 663.374023438 144.241210938 679.517578125 75 766 66 c 0
 768.983398438 65.689453125 771 66 773 66 c 2
 783 0 l 1
 440 0 l 1
 430 74 l 1
10.76953125 565 m 1
 156.114257812 568.5390625 321.536132812 618 323.553710938 618 c 1
 316.262695312 563.265625 281.2265625 436.028320312 275.40625 289 c 0
 271.506835938 190.521484375 280.844726562 60 375 60 c 0
 378 60 381 60 383 60 c 2
 393 0 l 1
 36 0 l 1
 28 78 l 1
 167.857421875 66.345703125 167.606445312 170.020507812 169.2890625 288 c 0
 171.434570312 438.452148438 182.56640625 489.993164062 18.5029296875 494 c 1
 10.76953125 565 l 1
EndSplineSet
Fore
SplineSet
829 74 m 1
 896.83984375 74 940.264648438 80.4052734375 952.255859375 240 c 0
 957.19140625 305.690429688 954.352539062 368.310546875 944.221679688 416 c 0
 932.901367188 469.288085938 905.961914062 495.533203125 871.037109375 493.791992188 c 0
 785.465820312 489.525390625 681.095703125 321.228515625 668.935546875 174 c 1
 626.513671875 198 l 1
 667.052734375 456 825.283203125 610.37890625 951.890625 621 c 0
 1021.69335938 626.85546875 1074.17382812 585.135742188 1081.12402344 522 c 0
 1088.78417969 452.409179688 1068.83789062 342.143554688 1065.56738281 242 c 0
 1062.37402344 144.241210938 1078.51757812 75 1165 66 c 0
 1167.98339844 65.689453125 1170 66 1172 66 c 2
 1182 0 l 1
 839 0 l 1
 829 74 l 1
430 74 m 1
 497.83984375 74 541.264648438 80.4052734375 553.255859375 240 c 4
 558.19140625 305.690429688 555.352539062 368.310546875 545.221679688 416 c 0
 533.901367188 469.288085938 506.961914062 495.533203125 472.037109375 493.791992188 c 0
 386.465820312 489.525390625 271.095703125 351.228515625 258.935546875 204 c 1
 206.513671875 218 l 1
 247.052734375 476 426.283203125 610.37890625 552.890625 621 c 0
 622.693359375 626.85546875 675.173828125 585.135742188 682.124023438 522 c 0
 689.784179688 452.409179688 669.837890625 342.143554688 666.567382812 242 c 0
 663.374023438 144.241210938 679.517578125 75 766 66 c 0
 768.983398438 65.689453125 771 66 773 66 c 2
 783 0 l 1
 440 0 l 1
 430 74 l 1
10.76953125 565 m 1
 156.114257812 568.5390625 321.536132812 618 323.553710938 618 c 1
 316.262695312 563.265625 281.2265625 436.028320312 275.40625 289 c 0
 271.506835938 190.521484375 280.844726562 60 375 60 c 0
 378 60 381 60 383 60 c 2
 393 0 l 1
 36 0 l 1
 28 78 l 1
 167.857421875 66.345703125 167.606445312 170.020507812 169.2890625 288 c 0
 171.434570312 438.452148438 182.56640625 489.993164062 18.5029296875 494 c 1
 10.76953125 565 l 1
EndSplineSet
Layer: 2
SplineSet
616 454 m 1
 665 522 775 612 882 612 c 0
 958 612 1010 582 1024 488 c 0
 1027 466 1029 408 1029 363 c 0
 1029 244 1028 82 1024 0 c 1
 899 0 l 1
 917 79 936 202 936 303 c 0
 936 347 934 387 930 417 c 0
 921 480 869 513 810 513 c 0
 709 513 641 417 641 417 c 1
 616 454 l 1
802 62 m 1
 806 62 824 59 838 59 c 0
 877 59 916 69 922 140 c 1
 1027 139 l 1
 1024 60 1084 50 1111 50 c 0
 1114 50 1116 50 1118 50 c 1
 1128 0 l 1
 812 0 l 1
 802 62 l 1
49 595 m 1
 64 594 80 594 97 594 c 0
 191 594 293 608 293 608 c 1
 293 608 276 496 270 470 c 1
 270 461 272 457 275 457 c 0
 282 457 293 478 293 478 c 1
 291 437 281 395 281 351 c 0
 281 327 281 304 281 279 c 0
 281 193 290 100 300 0 c 1
 165 0 l 1
 176 144 189 226 189 318 c 0
 189 443.881835938 193.056691327 530.65715387 56 534 c 1
 49 595 l 1
52 62 m 1
 64 61 75 60 85 60 c 0
 140 60 172 81 175 130 c 1
 288 143 l 1
 288 139 288 135 288 132 c 0
 288 56 337 48 365 48 c 0
 368 48 371 48 373 48 c 1
 383 0 l 1
 60 0 l 1
 52 62 l 1
237 454 m 1
 286 522 396 612 503 612 c 0
 579 612 631 582 645 488 c 0
 648 466 650 408 650 363 c 0
 650 244 649 82 645 0 c 1
 520 0 l 1
 538 79 557 202 557 303 c 0
 557 347 555 387 551 417 c 0
 542 480 490 513 431 513 c 0
 330 513 262 417 262 417 c 1
 237 454 l 1
423 62 m 1
 427 62 445 59 459 59 c 0
 498 59 537 69 543 140 c 1
 648 139 l 1
 645 60 705 50 732 50 c 0
 735 50 737 50 739 50 c 1
 749 0 l 1
 433 0 l 1
 423 62 l 1
EndSplineSet
EndChar

StartChar: g
Encoding: 103 103 16
GlifName: g
Width: 709
VWidth: 153
Flags: HMW
LayerCount: 3
Back
SplineSet
31 -192 m 0
 -2.28888377178 -89.7377163266 98 27 231 62 c 1
 295 56 l 21
 212 26 162.804784507 -22.2859563788 149 -75 c 0
 129.104492188 -150.971679688 207 -215 283 -215 c 0
 434 -215 522 -138 522 -66 c 0
 522 83 128 60 52 57 c 1
 54 74 47 96 41 119 c 1
 71 154 136 201 193 240 c 1
 243 226 l 1
 212 203 142 123 202 130 c 1
 459 150 638 124 637 -38 c 0
 636 -181 423.999023438 -292.821289062 232 -294 c 0
 102.999023438 -294.791992188 49.5776033744 -249.069746143 31 -192 c 0
57 370 m 0
 56 511 192 611 334 611 c 0
 449 611 561 571 561 453 c 0
 561 301 427 217 291 217 c 0
 146 217 58 258 57 370 c 0
178 404 m 0
 178 312 240 273 305 274 c 0
 388.99609375 275.291992188 443 347 443 426 c 0
 443 499 404 558 316 558 c 0
 248 558 178 499 178 404 c 0
507 520 m 17
 537 522 617 551 719 611 c 1
 725 574 726 506 722 476 c 1
 666 478 600 478 549 478 c 9
 507 520 l 17
EndSplineSet
Fore
SplineSet
31 -192 m 0
 -2.28888377178 -89.7377163266 98 27 231 62 c 1
 295 56 l 21
 212 26 162.804784507 -22.2859563788 149 -75 c 0
 129.104492188 -150.971679688 207 -215 283 -215 c 0
 434 -215 522 -138 522 -66 c 0
 522 83 128 60 52 57 c 1
 54 74 47 96 41 119 c 1
 71 154 136 201 193 240 c 1
 243 226 l 1
 212 203 142 123 202 130 c 1
 459 150 638 124 637 -38 c 0
 636 -181 423.999023438 -292.821289062 232 -294 c 0
 102.999023438 -294.791992188 49.5776033744 -249.069746143 31 -192 c 0
57 370 m 0
 56 511 192 611 334 611 c 0
 449 611 561 571 561 453 c 0
 561 301 427 217 291 217 c 0
 146 217 58 258 57 370 c 0
178 404 m 0
 178 312 240 273 305 274 c 0
 388.99609375 275.291992188 443 347 443 426 c 0
 443 499 404 558 316 558 c 0
 248 558 178 499 178 404 c 0
507 520 m 17
 537 522 617 551 719 611 c 1
 725 574 726 506 722 476 c 1
 666 478 600 478 549 478 c 9
 507 520 l 17
EndSplineSet
Layer: 2
SplineSet
31 -192 m 0
 -2.28888377178 -89.7377163266 98 27 231 62 c 1
 295 56 l 21
 212 26 162.804784507 -22.2859563788 149 -75 c 0
 129.104492188 -150.971679688 207 -215 283 -215 c 0
 434 -215 522 -138 522 -66 c 0
 522 83 128 60 52 57 c 1
 54 74 47 96 41 119 c 1
 71 154 136 201 193 240 c 1
 243 226 l 1
 212 203 142 123 202 130 c 1
 459 150 638 124 637 -38 c 0
 636 -181 423.999023438 -292.821289062 232 -294 c 0
 102.999023438 -294.791992188 49.5776033744 -249.069746143 31 -192 c 0
57 370 m 0
 56 511 192 611 334 611 c 0
 449 611 561 571 561 453 c 0
 561 301 427 217 291 217 c 0
 146 217 58 258 57 370 c 0
178 404 m 0
 178 312 240 273 305 274 c 0
 388.99609375 275.291992188 443 347 443 426 c 0
 443 499 404 558 316 558 c 0
 248 558 178 499 178 404 c 0
507 520 m 17
 537 522 617 551 719 611 c 1
 725 574 726 506 722 476 c 1
 666 478 600 478 549 478 c 9
 507 520 l 17
EndSplineSet
EndChar

StartChar: H
Encoding: 72 72 17
GlifName: H_
Width: 902
VWidth: 79
Flags: HMW
LayerCount: 3
Back
SplineSet
42 61 m 1
 118 57 148 89 155 137 c 1
 274 146 l 1
 272 51 348 50 366 51 c 1
 376 0 l 1
 52 0 l 1
 42 61 l 1
61 800 m 5
 174 792 253 795 361 800 c 5
 371 749 l 5
 353 750 284 749 286 654 c 5
 160 663 l 5
 153 711 143 743 67 739 c 5
 61 800 l 5
127 0 m 1
 127 0 146 72 154 136 c 1
 166 298 166 583 156 768 c 1
 299 793 l 1
 274 593 270 208 274 145 c 0
 277 101 256 49 338 49 c 1
 322 1 l 1
 127 0 l 1
194 367 m 1
 194 433 l 1
 603 434 l 1
 747 441 l 1
 747 370 l 1
 194 367 l 1
537 58 m 1
 613 54 648 92 652 140 c 1
 770 139 l 1
 767 49 833 49 852 50 c 1
 862 0 l 1
 547 0 l 1
 537 58 l 1
552 800 m 1
 668 790 750 794 856 800 c 1
 861 749 l 1
 843 750 783 749 779 654 c 1
 655 663 l 1
 648 711 636 743 560 739 c 1
 552 800 l 1
624 0 m 1
 624 0 643 72 651 136 c 1
 663 298 660 583 650 768 c 1
 792 793 l 1
 767 593 767 208 770 145 c 0
 772 101 752 49 834 49 c 1
 818 1 l 1
 624 0 l 1
EndSplineSet
Fore
SplineSet
42 61 m 1
 118 57 148 89 155 137 c 1
 274 146 l 1
 272 51 348 50 366 51 c 1
 376 0 l 1
 52 0 l 1
 42 61 l 1
61 800 m 5
 174 792 253 795 361 800 c 5
 371 749 l 5
 353 750 284 749 286 654 c 5
 160 663 l 5
 153 711 143 743 67 739 c 5
 61 800 l 5
127 0 m 1
 127 0 146 72 154 136 c 1
 166 298 166 583 156 768 c 1
 299 793 l 1
 274 593 270 208 274 145 c 0
 277 101 256 49 338 49 c 1
 322 1 l 1
 127 0 l 1
194 367 m 1
 194 433 l 1
 603 434 l 1
 747 441 l 1
 747 370 l 1
 194 367 l 1
537 58 m 1
 613 54 648 92 652 140 c 1
 770 139 l 1
 767 49 833 49 852 50 c 1
 862 0 l 1
 547 0 l 1
 537 58 l 1
552 800 m 1
 668 790 750 794 856 800 c 1
 861 749 l 1
 843 750 783 749 779 654 c 1
 655 663 l 1
 648 711 636 743 560 739 c 1
 552 800 l 1
624 0 m 1
 624 0 643 72 651 136 c 1
 663 298 660 583 650 768 c 1
 792 793 l 1
 767 593 767 208 770 145 c 0
 772 101 752 49 834 49 c 1
 818 1 l 1
 624 0 l 1
EndSplineSet
Layer: 2
SplineSet
42 61 m 1
 118 57 148 89 155 137 c 1
 274 146 l 1
 272 51 348 50 366 51 c 1
 376 0 l 1
 52 0 l 1
 42 61 l 1
61 800 m 5
 174 792 253 795 361 800 c 5
 371 749 l 5
 353 750 284 749 286 654 c 5
 160 663 l 5
 153 711 143 743 67 739 c 5
 61 800 l 5
127 0 m 1
 127 0 146 72 154 136 c 1
 166 298 166 583 156 768 c 1
 299 793 l 1
 274 593 270 208 274 145 c 0
 277 101 256 49 338 49 c 1
 322 1 l 1
 127 0 l 1
194 367 m 1
 194 433 l 1
 603 434 l 1
 747 441 l 1
 747 370 l 1
 194 367 l 1
537 58 m 1
 613 54 648 92 652 140 c 1
 770 139 l 1
 767 49 833 49 852 50 c 1
 862 0 l 1
 547 0 l 1
 537 58 l 1
552 800 m 1
 668 790 750 794 856 800 c 1
 861 749 l 1
 843 750 783 749 779 654 c 1
 655 663 l 1
 648 711 636 743 560 739 c 1
 552 800 l 1
624 0 m 1
 624 0 643 72 651 136 c 1
 663 298 660 583 650 768 c 1
 792 793 l 1
 767 593 767 208 770 145 c 0
 772 101 752 49 834 49 c 1
 818 1 l 1
 624 0 l 1
EndSplineSet
EndChar

StartChar: A
Encoding: 65 65 18
GlifName: A_
Width: 863
VWidth: 79
Flags: HMW
LayerCount: 3
Back
SplineSet
42 61 m 1
 123 52 145 86 164 136 c 0
 257 377 326 583 381 768 c 5
 420 774 468 786 507 799 c 5
 568 589 637 418 737 150 c 0
 754 104 775 43 843 55 c 1
 853 0 l 1
 741 0 629 0 517 0 c 1
 507 64 l 1
 578 53 629 65 613 124 c 0
 579 249 505 396 462 541 c 4
 454 580 439 635 431 676 c 5
 371 468 279 210 264 145 c 0
 243 49 318 50 366 51 c 1
 376 0 l 1
 268 0 160 0 52 0 c 1
 42 61 l 1
285 308 m 1
 285 366 l 1
 608 374 l 1
 608 311 l 1
 285 308 l 1
EndSplineSet
Fore
SplineSet
42 61 m 1
 123 52 145 86 164 136 c 0
 257 377 326 583 381 768 c 5
 420 774 468 786 507 799 c 5
 568 589 637 418 737 150 c 0
 754 104 775 43 843 55 c 1
 853 0 l 1
 741 0 629 0 517 0 c 1
 507 64 l 1
 578 53 629 65 613 124 c 0
 579 249 505 396 462 541 c 4
 454 580 439 635 431 676 c 5
 371 468 279 210 264 145 c 0
 243 49 318 50 366 51 c 1
 376 0 l 1
 268 0 160 0 52 0 c 1
 42 61 l 1
285 308 m 1
 285 366 l 1
 608 374 l 1
 608 311 l 1
 285 308 l 1
EndSplineSet
Layer: 2
SplineSet
42 61 m 1
 123 52 145 86 164 136 c 0
 257 377 326 583 381 768 c 5
 420 774 468 786 507 799 c 5
 568 589 637 418 737 150 c 0
 754 104 775 43 843 55 c 1
 853 0 l 1
 741 0 629 0 517 0 c 1
 507 64 l 1
 578 53 629 65 613 124 c 0
 579 249 505 396 462 541 c 4
 454 580 439 635 431 676 c 5
 371 468 279 210 264 145 c 0
 243 49 318 50 366 51 c 1
 376 0 l 1
 268 0 160 0 52 0 c 1
 42 61 l 1
285 308 m 1
 285 366 l 1
 608 374 l 1
 608 311 l 1
 285 308 l 1
EndSplineSet
EndChar

StartChar: B
Encoding: 66 66 19
GlifName: B_
Width: 719
VWidth: 79
Flags: HMW
LayerCount: 3
Back
SplineSet
17 798 m 1
 205 786 246 803 396 803 c 0
 531 803 612 738 613 618 c 0
 614 524 548 417 441 412 c 1
 473 437 l 1
 613 401 669.072909024 322.999266338 668 220 c 4
 666 28 521 0 320 0 c 1
 252 -1 107 0 33 0 c 1
 23 61 l 1
 102 51 133 77 135 127 c 0
 144 342 147 468 139 628 c 0
 136 686 119 742 27 735 c 1
 17 798 l 1
244 375 m 1
 243 275 243 197 253 123 c 0
 260 65 305 61 358 61 c 0
 471 62 546 119 546 219 c 0
 546 306 475 383 370 386 c 0
 327 387 279 382 244 375 c 1
246 450 m 1
 442 426 488 530 490 587 c 0
 493 677 433 745 355 747 c 0
 309 748 275 739 252 730 c 1
 244 653 247 548 246 450 c 1
EndSplineSet
Fore
SplineSet
17 798 m 1
 205 786 246 803 396 803 c 0
 531 803 612 738 613 618 c 0
 614 524 548 417 441 412 c 1
 473 437 l 1
 613 401 669.072909024 322.999266338 668 220 c 4
 666 28 521 0 320 0 c 1
 252 -1 107 0 33 0 c 1
 23 61 l 1
 102 51 133 77 135 127 c 0
 144 342 147 468 139 628 c 0
 136 686 119 742 27 735 c 1
 17 798 l 1
244 375 m 1
 243 275 243 197 253 123 c 0
 260 65 305 61 358 61 c 0
 471 62 546 119 546 219 c 0
 546 306 475 383 370 386 c 0
 327 387 279 382 244 375 c 1
246 450 m 1
 442 426 488 530 490 587 c 0
 493 677 433 745 355 747 c 0
 309 748 275 739 252 730 c 1
 244 653 247 548 246 450 c 1
EndSplineSet
Layer: 2
SplineSet
17 798 m 1
 205 786 246 803 396 803 c 0
 531 803 612 738 613 618 c 0
 614 524 548 417 441 412 c 1
 473 437 l 1
 613 401 669.072909024 322.999266338 668 220 c 4
 666 28 521 0 320 0 c 1
 252 -1 107 0 33 0 c 1
 23 61 l 1
 102 51 133 77 135 127 c 0
 144 342 147 468 139 628 c 0
 136 686 119 742 27 735 c 1
 17 798 l 1
244 375 m 1
 243 275 243 197 253 123 c 0
 260 65 305 61 358 61 c 0
 471 62 546 119 546 219 c 0
 546 306 475 383 370 386 c 0
 327 387 279 382 244 375 c 1
246 450 m 1
 442 426 488 530 490 587 c 0
 493 677 433 745 355 747 c 0
 309 748 275 739 252 730 c 1
 244 653 247 548 246 450 c 1
EndSplineSet
EndChar

StartChar: W
Encoding: 87 87 20
GlifName: W_
Width: 1231
VWidth: 79
Flags: HMW
LayerCount: 3
Back
SplineSet
-15 800 m 1
 101 796 233 793 321 800 c 1
 331 736 l 1
 260 747 209 735 225 676 c 0
 259 551 333 370 376 225 c 0
 384 192 399 135 407 100 c 1
 467 301 559 592 574 655 c 1
 674 664 l 1
 581 430 512 188 457 8 c 1
 418 2 370 -10 331 -23 c 1
 270 181 201 390 101 650 c 0
 84 696 63 748 -5 736 c 1
 -15 800 l 1
459 800 m 1
 571 800 683 800 795 800 c 1
 805 736 l 1
 734 747 683 735 699 676 c 0
 733 551 799 370 842 225 c 0
 850 192 865 135 873 100 c 1
 933 301 1024 592 1039 655 c 0
 1060 751 985 750 937 749 c 1
 927 800 l 1
 1035 800 1143 800 1251 800 c 1
 1261 739 l 1
 1180 748 1158 714 1139 664 c 0
 1046 430 978 188 923 8 c 1
 884 2 836 -10 797 -23 c 1
 736 181 675 390 575 650 c 0
 558 696 537 757 469 745 c 1
 459 800 l 1
EndSplineSet
Fore
SplineSet
-15 800 m 1
 101 796 233 793 321 800 c 1
 331 736 l 1
 260 747 209 735 225 676 c 0
 259 551 333 370 376 225 c 0
 384 192 399 135 407 100 c 1
 467 301 559 592 574 655 c 1
 674 664 l 1
 581 430 512 188 457 8 c 1
 418 2 370 -10 331 -23 c 1
 270 181 201 390 101 650 c 0
 84 696 63 748 -5 736 c 1
 -15 800 l 1
459 800 m 1
 571 800 683 800 795 800 c 1
 805 736 l 1
 734 747 683 735 699 676 c 0
 733 551 799 370 842 225 c 0
 850 192 865 135 873 100 c 1
 933 301 1024 592 1039 655 c 0
 1060 751 985 750 937 749 c 1
 927 800 l 1
 1035 800 1143 800 1251 800 c 1
 1261 739 l 1
 1180 748 1158 714 1139 664 c 0
 1046 430 978 188 923 8 c 1
 884 2 836 -10 797 -23 c 1
 736 181 675 390 575 650 c 0
 558 696 537 757 469 745 c 1
 459 800 l 1
EndSplineSet
Layer: 2
SplineSet
-15 800 m 1
 101 796 233 793 321 800 c 1
 331 736 l 1
 260 747 209 735 225 676 c 0
 259 551 333 370 376 225 c 0
 384 192 399 135 407 100 c 1
 467 301 559 592 574 655 c 1
 674 664 l 1
 581 430 512 188 457 8 c 1
 418 2 370 -10 331 -23 c 1
 270 181 201 390 101 650 c 0
 84 696 63 748 -5 736 c 1
 -15 800 l 1
459 800 m 1
 571 800 683 800 795 800 c 1
 805 736 l 1
 734 747 683 735 699 676 c 0
 733 551 799 370 842 225 c 0
 850 192 865 135 873 100 c 1
 933 301 1024 592 1039 655 c 0
 1060 751 985 750 937 749 c 1
 927 800 l 1
 1035 800 1143 800 1251 800 c 1
 1261 739 l 1
 1180 748 1158 714 1139 664 c 0
 1046 430 978 188 923 8 c 1
 884 2 836 -10 797 -23 c 1
 736 181 675 390 575 650 c 0
 558 696 537 757 469 745 c 1
 459 800 l 1
EndSplineSet
EndChar

StartChar: c
Encoding: 99 99 21
GlifName: c
Width: 608
VWidth: 153
Flags: HMW
LayerCount: 3
Back
SplineSet
68 210 m 0
 67.796875 449 249.557617188 588.17578125 385.283203125 606 c 0
 484.171875 618.986328125 529.560546875 605.364257812 567.04296875 593 c 1
 570.01953125 540.666992188 555.59375 428.333007812 543.7734375 376 c 1
 495.93359375 448 417.891601562 529.233398438 348.833984375 522 c 0
 275.083007812 514.275390625 239.658203125 438 229.08203125 345 c 0
 217.743164062 245.288085938 250.484375 123 387.146484375 98 c 0
 489.127929688 79 554.541015625 137 556.541015625 137 c 1
 588.720703125 83 l 1
 570.0390625 56 472.465820312 -23.6279296875 345.411132812 -26 c 0
 238.303710938 -28 68.0771484375 6 68 210 c 0
EndSplineSet
Fore
SplineSet
58 210 m 0
 57.796875 449 250.534272909 581.878158078 385.283203125 606 c 0
 480.171875 622.986328125 529.560546875 611.364257812 567.04296875 599 c 1
 570.01953125 546.666992188 553.59375 398.333007812 541.7734375 346 c 5
 493.93359375 438 392.563476562 498.876953125 323.833984375 489 c 0
 270.083007812 481.275390625 252.658203125 442 242.08203125 379 c 0
 225.467773438 280.030273438 260.484375 138 397.146484375 113 c 0
 499.127929688 94 554.541015625 142 556.541015625 142 c 1
 588.720703125 78 l 1
 570.0390625 51 472.465820312 -28.6279296875 345.411132812 -31 c 0
 238.303710938 -33 58.0771484375 6 58 210 c 0
EndSplineSet
Layer: 2
SplineSet
68.921875 230 m 0
 67.921875 404 172.921875 598 415.921875 598 c 0
 513.921875 598 566.921875 569 566.921875 569 c 1
 568.921875 531 568.921875 461 561.921875 416 c 1
 501.921875 412 l 1
 480.921875 455 461.921875 494 412.921875 528 c 1
 493.921875 465 l 1
 471.921875 470 429.921875 524 337.921875 523 c 0
 258.921875 522 184.921875 466 182.921875 315 c 4
 180.921875 192 233.921875 64 367.921875 62 c 0
 432.921875 61 491.921875 86 528.921875 121 c 1
 559.921875 87 l 1
 507.921875 23 433.921875 -15 329.921875 -15 c 0
 180.921875 -15 69.921875 69 68.921875 230 c 0
EndSplineSet
EndChar

StartChar: w
Encoding: 119 119 22
GlifName: w
Width: 1006
VWidth: 79
Flags: HMW
LayerCount: 3
Back
SplineSet
-7 596 m 1
 113 587 189 589 295 596 c 1
 309 542 l 1
 253 546 196 538 220 460 c 1
 248 362 275 292 300 197 c 1
 311 162 325 74 325 74 c 1
 357 146 428 293 492 459 c 1
 573 456 l 1
 504 279 399 71 362 -9 c 9
 258 -26 l 1
 219 86 178 225 98 462 c 1
 79 527 48 533 1 532 c 1
 -7 596 l 1
378 596 m 1
 489 592 566 594 660 596 c 1
 670 542 l 1
 609 546 589 525 604 460 c 1
 632 362 653 292 678 197 c 5
 689 162 702 77 702 77 c 1
 734 149 784 293 838 459 c 1
 861 517 817 536 749 533 c 1
 740 596 l 1
 837 590 906 590 1000 596 c 1
 1011 538 l 1
 951 536 943 508 923 456 c 0
 854 279 783 71 746 -9 c 9
 642 -26 l 1
 608 86 553 245 483 482 c 1
 474 517 443 538 396 532 c 1
 378 596 l 1
EndSplineSet
Fore
SplineSet
-7 596 m 1
 113 587 189 589 295 596 c 1
 309 542 l 1
 253 546 196 538 220 460 c 1
 248 362 275 292 300 197 c 1
 311 162 325 74 325 74 c 1
 357 146 428 293 492 459 c 1
 573 456 l 1
 504 279 399 71 362 -9 c 9
 258 -26 l 1
 219 86 178 225 98 462 c 1
 79 527 48 533 1 532 c 1
 -7 596 l 1
378 596 m 1
 489 592 566 594 660 596 c 1
 670 542 l 1
 609 546 589 525 604 460 c 1
 632 362 653 292 678 197 c 5
 689 162 702 77 702 77 c 1
 734 149 784 293 838 459 c 1
 861 517 817 536 749 533 c 1
 740 596 l 1
 837 590 906 590 1000 596 c 1
 1011 538 l 1
 951 536 943 508 923 456 c 0
 854 279 783 71 746 -9 c 9
 642 -26 l 1
 608 86 553 245 483 482 c 1
 474 517 443 538 396 532 c 1
 378 596 l 1
EndSplineSet
Layer: 2
SplineSet
-7 596 m 1
 113 587 189 589 295 596 c 1
 309 542 l 1
 253 546 196 538 220 460 c 1
 248 362 275 292 300 197 c 1
 311 162 325 74 325 74 c 1
 357 146 428 293 492 459 c 1
 573 456 l 1
 504 279 399 71 362 -9 c 9
 258 -26 l 1
 219 86 178 225 98 462 c 1
 79 527 48 533 1 532 c 1
 -7 596 l 1
378 596 m 1
 489 592 566 594 660 596 c 1
 670 542 l 1
 609 546 589 525 604 460 c 1
 632 362 653 292 678 197 c 5
 689 162 702 77 702 77 c 1
 734 149 784 293 838 459 c 1
 861 517 817 536 749 533 c 1
 740 596 l 1
 837 590 906 590 1000 596 c 1
 1011 538 l 1
 951 536 943 508 923 456 c 0
 854 279 783 71 746 -9 c 9
 642 -26 l 1
 608 86 553 245 483 482 c 1
 474 517 443 538 396 532 c 1
 378 596 l 1
EndSplineSet
EndChar

StartChar: V
Encoding: 86 86 23
GlifName: V_
Width: 826
VWidth: 79
Flags: HMW
LayerCount: 3
Back
SplineSet
-5 799 m 1
 107 794 249 793 331 799 c 1
 341 735 l 1
 270 746 219 734 235 675 c 0
 269 556 340 384 383 245 c 0
 391 206 409 127 417 86 c 5
 487 277 606 591 621 654 c 0
 642 750 560 749 512 748 c 1
 502 799 l 1
 613 795 723 790 826 799 c 1
 836 738 l 1
 755 747 733 713 714 663 c 0
 621 429 529 188 474 8 c 1
 435 2 387 -10 348 -23 c 1
 287 187 211 401 111 669 c 0
 94 705 73 754 5 744 c 1
 -5 799 l 1
EndSplineSet
Fore
SplineSet
-5 799 m 1
 107 794 249 793 331 799 c 1
 341 735 l 1
 270 746 219 734 235 675 c 0
 269 556 340 384 383 245 c 0
 391 206 409 127 417 86 c 5
 487 277 606 591 621 654 c 0
 642 750 560 749 512 748 c 1
 502 799 l 1
 613 795 723 790 826 799 c 1
 836 738 l 1
 755 747 733 713 714 663 c 0
 621 429 529 188 474 8 c 1
 435 2 387 -10 348 -23 c 1
 287 187 211 401 111 669 c 0
 94 705 73 754 5 744 c 1
 -5 799 l 1
EndSplineSet
Layer: 2
SplineSet
-5 799 m 1
 107 794 249 793 331 799 c 1
 341 735 l 1
 270 746 219 734 235 675 c 0
 269 556 340 384 383 245 c 0
 391 206 409 127 417 86 c 5
 487 277 606 591 621 654 c 0
 642 750 560 749 512 748 c 1
 502 799 l 1
 613 795 723 790 826 799 c 1
 836 738 l 1
 755 747 733 713 714 663 c 0
 621 429 529 188 474 8 c 1
 435 2 387 -10 348 -23 c 1
 287 187 211 401 111 669 c 0
 94 705 73 754 5 744 c 1
 -5 799 l 1
EndSplineSet
EndChar

StartChar: C
Encoding: 67 67 24
GlifName: C_
Width: 748
VWidth: 79
Flags: HMW
LayerCount: 3
Back
SplineSet
57 289 m 4
 45 527 201 809 533 809 c 0
 694 809 753 773 753 773 c 1
 756 722 752 592 742 550 c 1
 683 553 l 1
 651 641 568 755 522 762 c 1
 536 783 718 739 665 644 c 1
 648 648 581 737 458 737 c 0
 300 737 193 589 190 393 c 0
 187 226 277 69 461 71 c 0
 550.000360373 71.9673952214 632 118 683 166 c 1
 723 123 l 1
 652 35 541 -17 399 -17 c 0
 195 -17 67.423828125 82.259765625 57 289 c 4
EndSplineSet
Fore
SplineSet
57 289 m 4
 45 527 201 809 533 809 c 0
 694 809 753 773 753 773 c 1
 756 722 752 592 742 550 c 1
 683 553 l 1
 651 641 568 755 522 762 c 1
 536 783 718 739 665 644 c 1
 648 648 581 737 458 737 c 0
 300 737 193 589 190 393 c 0
 187 226 277 69 461 71 c 0
 550.000360373 71.9673952214 632 118 683 166 c 1
 723 123 l 1
 652 35 541 -17 399 -17 c 0
 195 -17 67.423828125 82.259765625 57 289 c 4
EndSplineSet
Layer: 2
SplineSet
57 289 m 4
 45 527 201 809 533 809 c 0
 694 809 753 773 753 773 c 1
 756 722 752 592 742 550 c 1
 683 553 l 1
 651 641 568 755 522 762 c 1
 536 783 718 739 665 644 c 1
 648 648 581 737 458 737 c 0
 300 737 193 589 190 393 c 0
 187 226 277 69 461 71 c 0
 550.000360373 71.9673952214 632 118 683 166 c 1
 723 123 l 1
 652 35 541 -17 399 -17 c 0
 195 -17 67.423828125 82.259765625 57 289 c 4
EndSplineSet
EndChar

StartChar: q
Encoding: 113 113 25
GlifName: q
Width: 682
VWidth: 79
Flags: HMW
LayerCount: 3
Back
SplineSet
575 581 m 1
 499 429 l 1
 499 429 413.173828125 550.004882812 296 530 c 0
 214 516 150.000976562 415.293945312 145 252 c 0
 141.967773438 152.970703125 178.229492188 77.55078125 253 72.8623046875 c 0
 343.751953125 67.171875 455.983398438 187.961914062 468 346 c 5
 499 301 l 5
 467 58 312 -19 227 -22 c 0
 82.0908203125 -27.1142578125 25.1513671875 76.6298828125 41 247 c 0
 57 419 170 601 400 603 c 0
 498 604 532 592 575 581 c 1
394 598 m 1
 575 581 l 1
 553.028320312 247.755859375 562.680511928 186.049140101 572 -69 c 0
 574.803681259 -145.729160289 602.051825966 -170.000000016 659 -170 c 2
 667 -170 l 1
 677 -218 l 1
 341 -218 l 1
 333 -156 l 1
 345 -157 356 -158 366 -158 c 0
 421 -158 450 -137 453 -88 c 1
 454.499581691 -87.7605709905 l 1
 478.179410056 157.042252006 467.583570356 488.059226466 457 554 c 1
 394 598 l 1
EndSplineSet
Fore
SplineSet
575 581 m 1
 499 429 l 1
 499 429 413.173828125 550.004882812 296 530 c 0
 214 516 150.000976562 415.293945312 145 252 c 0
 141.967773438 152.970703125 178.229492188 77.55078125 253 72.8623046875 c 0
 343.751953125 67.171875 455.983398438 187.961914062 468 346 c 5
 499 301 l 5
 467 58 312 -19 227 -22 c 0
 82.0908203125 -27.1142578125 25.1513671875 76.6298828125 41 247 c 0
 57 419 170 601 400 603 c 0
 498 604 532 592 575 581 c 1
394 598 m 1
 575 581 l 1
 553.028320312 247.755859375 562.680511928 186.049140101 572 -69 c 0
 574.803681259 -145.729160289 602.051825966 -170.000000016 659 -170 c 2
 667 -170 l 1
 677 -218 l 1
 341 -218 l 1
 333 -156 l 1
 345 -157 356 -158 366 -158 c 0
 421 -158 450 -137 453 -88 c 1
 454.499581691 -87.7605709905 l 1
 478.179410056 157.042252006 467.583570356 488.059226466 457 554 c 1
 394 598 l 1
EndSplineSet
Layer: 2
SplineSet
56 225 m 0
 55 367 135.280273438 551.5703125 334 602 c 0
 409.931640625 621.26953125 534 604 574 589 c 1
 494 497 l 1
 494 497 425.563476562 560.984375 332 550 c 0
 248.401367188 540.185546875 181 434 179 284 c 0
 178 181 212.200332381 73.4828614212 302 73 c 0
 412.511367226 72.4057697846 459 187 480 241 c 1
 511 200 l 1
 479 126 433 -3 280 -13 c 0
 135.308721181 -22.456946328 57 64 56 225 c 0
394 598 m 1
 575 589 l 1
 553.027835253 255.755501334 562.680511928 186.049140101 572 -69 c 0
 574.803681259 -145.729160289 602.051825966 -170.000000016 659 -170 c 2
 667 -170 l 1
 677 -218 l 1
 341 -218 l 1
 333 -156 l 1
 345 -157 356 -158 366 -158 c 0
 421 -158 450 -137 453 -88 c 1
 454.499581691 -87.7605709905 l 1
 478.179410056 157.042252006 467.583570356 488.059226466 457 554 c 1
 394 598 l 1
EndSplineSet
EndChar

StartChar: f
Encoding: 102 102 26
GlifName: f
Width: 478
VWidth: 79
Flags: HMW
LayerCount: 3
Back
SplineSet
115 573 m 1
 103.348632812 890.875976562 279.700195312 908.90234375 398 908 c 0
 463.017578125 907.50390625 526 886 526 886 c 1
 526.15234375 830.548828125 504.223632812 758.377929688 483 718 c 1
 442.314453125 780.97265625 381.509765625 857.119140625 308 849 c 0
 244.068006606 841.939117093 231.261625258 726.715595535 229.463867188 561 c 1
 115 573 l 1
39 520 m 1
 29 588 l 1
 170.5078125 583.043945312 252.553710938 582.5 384 588 c 1
 397 522 l 1
 205 503.526367188 l 1
 126 439.640625 l 1
 126.805664062 506.45703125 117.041015625 529.84765625 39 520 c 1
5 61 m 1
 81 57 113 78 117 136 c 1
 117.247453782 136.033553055 l 1
 119.762647226 193.512495435 129.750036454 335.642034314 123 488 c 1
 126 574 l 1
 230.353515625 559 l 1
 221.446835393 418.577401743 218.176098552 309.595520519 234.062754983 151.87291593 c 4
 241 83 261.166015625 52.86328125 343 54 c 5
 353 0 l 5
 12 0 l 1
 5 61 l 1
EndSplineSet
Fore
SplineSet
115 573 m 1
 103.348632812 890.875976562 279.700195312 908.90234375 398 908 c 0
 463.017578125 907.50390625 526 886 526 886 c 1
 526.15234375 830.548828125 504.223632812 758.377929688 483 718 c 1
 442.314453125 780.97265625 381.509765625 857.119140625 308 849 c 0
 244.068006606 841.939117093 231.261625258 726.715595535 229.463867188 561 c 1
 115 573 l 1
39 520 m 1
 29 588 l 1
 170.5078125 583.043945312 252.553710938 582.5 384 588 c 1
 397 522 l 1
 205 503.526367188 l 1
 126 439.640625 l 1
 126.805664062 506.45703125 117.041015625 529.84765625 39 520 c 1
5 61 m 1
 81 57 113 78 117 136 c 1
 117.247453782 136.033553055 l 1
 119.762647226 193.512495435 129.750036454 335.642034314 123 488 c 1
 126 574 l 1
 230.353515625 559 l 1
 221.446835393 418.577401743 218.176098552 309.595520519 234.062754983 151.87291593 c 4
 241 83 261.166015625 52.86328125 343 54 c 5
 353 0 l 5
 12 0 l 1
 5 61 l 1
EndSplineSet
Layer: 2
SplineSet
115 573 m 1
 103.348632812 890.875976562 279.700195312 908.90234375 398 908 c 0
 463.017578125 907.50390625 526 886 526 886 c 1
 526.15234375 830.548828125 504.223632812 758.377929688 483 718 c 1
 442.314453125 780.97265625 381.509765625 857.119140625 308 849 c 0
 244.068006606 841.939117093 231.261625258 726.715595535 229.463867188 561 c 1
 115 573 l 1
39 520 m 1
 29 588 l 1
 170.5078125 583.043945312 252.553710938 582.5 384 588 c 1
 397 522 l 1
 205 503.526367188 l 1
 126 439.640625 l 1
 126.805664062 506.45703125 117.041015625 529.84765625 39 520 c 1
5 61 m 1
 81 57 113 78 117 136 c 1
 117.247453782 136.033553055 l 1
 119.762647226 193.512495435 129.750036454 335.642034314 123 488 c 1
 126 574 l 1
 230.353515625 559 l 1
 221.446835393 418.577401743 218.176098552 309.595520519 234.062754983 151.87291593 c 4
 241 83 261.166015625 52.86328125 343 54 c 5
 353 0 l 5
 12 0 l 1
 5 61 l 1
EndSplineSet
Colour: ff0000
EndChar

StartChar: y
Encoding: 121 121 30
GlifName: y
Width: 665
VWidth: 79
Flags: HMW
LayerCount: 3
Back
SplineSet
-2 596 m 1
 112 591 206 593 320 596 c 1
 334 542 l 1
 258 536 210 525 225 460 c 1
 253 362 272 299 303 204 c 4
 314 169 338 68 338 68 c 1
 375 140 458 353 492 459 c 0
 510 518 472 536 404 533 c 1
 395 596 l 1
 492 590 568 592 665 596 c 1
 676 538 l 1
 606 536 600 507 578 456 c 0
 502 279 427 96 390 16 c 1
 361 13 307 -4 273 -8 c 1
 234 104 183 225 103 462 c 1
 84 527 53 539 6 538 c 1
 -2 596 l 1
53 -143 m 1
 246 -167 290 -43 334 52 c 9
 405 50 l 17
 379 -9 343 -106 309 -158 c 0
 256 -240 158 -267 73 -263 c 1
 35 -231 42 -163 53 -143 c 1
EndSplineSet
Fore
SplineSet
-2 596 m 1
 112 591 206 593 320 596 c 1
 334 542 l 1
 258 536 210 525 225 460 c 1
 253 362 272 299 303 204 c 4
 314 169 338 68 338 68 c 1
 375 140 458 353 492 459 c 0
 510 518 472 536 404 533 c 1
 395 596 l 1
 492 590 568 592 665 596 c 1
 676 538 l 1
 606 536 600 507 578 456 c 0
 502 279 427 96 390 16 c 1
 361 13 307 -4 273 -8 c 1
 234 104 183 225 103 462 c 1
 84 527 53 539 6 538 c 1
 -2 596 l 1
53 -143 m 1
 246 -167 290 -43 334 52 c 9
 405 50 l 17
 379 -9 343 -106 309 -158 c 0
 256 -240 158 -267 73 -263 c 1
 35 -231 42 -163 53 -143 c 1
EndSplineSet
Layer: 2
SplineSet
-2 596 m 1
 112 591 206 593 320 596 c 1
 334 542 l 1
 258 536 210 525 225 460 c 1
 253 362 272 299 303 204 c 4
 314 169 338 68 338 68 c 1
 375 140 458 353 492 459 c 0
 510 518 472 536 404 533 c 1
 395 596 l 1
 492 590 568 592 665 596 c 1
 676 538 l 1
 606 536 600 507 578 456 c 0
 502 279 427 96 390 16 c 1
 361 13 307 -4 273 -8 c 1
 234 104 183 225 103 462 c 1
 84 527 53 539 6 538 c 1
 -2 596 l 1
53 -143 m 1
 246 -167 290 -43 334 52 c 9
 405 50 l 17
 379 -9 343 -106 309 -158 c 0
 256 -240 158 -267 73 -263 c 1
 35 -231 42 -163 53 -143 c 1
EndSplineSet
EndChar

StartChar: l
Encoding: 108 108 31
GlifName: l
Width: 502
VWidth: 79
Flags: HMW
LayerCount: 3
Back
SplineSet
4 91 m 1
 125.173828125 93.0439453125 172.779296875 171.875 176.845703125 285 c 0
 181.940429688 426.73828125 224.365234375 760.477539062 -14 746 c 1
 -19 830 l 1
 184 828 345 874 345 874 c 1
 303 696 296.985351562 300.2734375 304 242 c 0
 314.4140625 155.484375 341.295898438 88.2939453125 420 81 c 1
 430 0 l 1
 14 0 l 1
 4 91 l 1
EndSplineSet
Fore
SplineSet
42 833 m 1
 190.57421875 847.955078125 266.485351562 859.514648438 405 886 c 1
 376.211914062 764.204101562 352.493164062 441.231445312 358 223 c 0
 359.716796875 154.955078125 338 91 442 91 c 0
 445 91 448 91 450 91 c 2
 465 -2 l 1
 62 0 l 1
 54 98 l 1
 174 96 204.508789062 112.708984375 209 192 c 0
 223.577148438 449.373046875 211.98828125 640.961914062 198 680 c 0
 176.04296875 741.27734375 150.178710938 739.556640625 50 742 c 1
 42 833 l 1
EndSplineSet
Layer: 2
SplineSet
4 61 m 5
 82.3037109375 56.87890625 114.954101562 90.62109375 121 142 c 4
 145 346 140 483 126 687 c 4
 122.779296875 733.931640625 78 767 6 766 c 5
 1 830 l 5
 84 828 265 850 265 850 c 1
 223 672 236.985351562 230.2734375 244 172 c 0
 254.4140625 85.484375 291.295898438 48.2939453125 340 51 c 1
 350 0 l 1
 14 0 l 5
 4 61 l 5
EndSplineSet
EndChar

StartChar: u
Encoding: 117 117 34
GlifName: u
Width: 728
VWidth: 79
Flags: HMW
LayerCount: 3
Back
SplineSet
-4 596 m 1
 88 591 169 599 239 608 c 1
 222 521 209 391 209 285 c 0
 209 177.4765625 243.433497738 85 334 85 c 0
 435 85 503 181 503 181 c 1
 528 144 l 1
 479 76 369 -14 262 -14 c 0
 186 -14 128 23 114 117 c 0
 111 139 109 180 109 225 c 0
 109 296 123 333 116 459 c 0
 112.058114469 529.953939556 32 534 2 532 c 1
 -4 596 l 1
376 598 m 1
 449 593 568 600 625 610 c 1
 605 468 l 1
 504 455 l 5
 509 542 422 540 384 538 c 1
 376 598 l 1
496 120 m 1
 498 161 508 203 508 247 c 0
 508 271 508 294 508 319 c 0
 508 405 499 488 509 588 c 1
 624 600 l 5
 603 456 597 352 597 260 c 0
 597 155 599 59 711 56 c 1
 720 0 l 1
 502 0 l 1
 502 0 509 102 515 128 c 1
 515 137 517 141 514 141 c 0
 507 141 496 120 496 120 c 1
EndSplineSet
Fore
SplineSet
-4 596 m 1
 88 591 169 599 239 608 c 1
 222 521 209 391 209 285 c 0
 209 177.4765625 243.433497738 85 334 85 c 0
 435 85 503 181 503 181 c 1
 528 144 l 1
 479 76 369 -14 262 -14 c 0
 186 -14 128 23 114 117 c 0
 111 139 109 180 109 225 c 0
 109 296 123 333 116 459 c 0
 112.058114469 529.953939556 32 534 2 532 c 1
 -4 596 l 1
376 598 m 1
 449 593 568 600 625 610 c 1
 605 468 l 1
 504 455 l 5
 509 542 422 540 384 538 c 1
 376 598 l 1
496 120 m 1
 498 161 508 203 508 247 c 0
 508 271 508 294 508 319 c 0
 508 405 499 488 509 588 c 1
 624 600 l 5
 603 456 597 352 597 260 c 0
 597 155 599 59 711 56 c 1
 720 0 l 1
 502 0 l 1
 502 0 509 102 515 128 c 1
 515 137 517 141 514 141 c 0
 507 141 496 120 496 120 c 1
EndSplineSet
Layer: 2
SplineSet
-4 596 m 1
 88 591 169 599 239 608 c 1
 222 521 215 401 215 295 c 0
 215 251 217 211 221 181 c 0
 230 118 275 85 334 85 c 0
 435 85 503 181 503 181 c 1
 528 144 l 1
 479 76 369 -14 262 -14 c 0
 186 -14 128 23 114 117 c 0
 111 139 109 180 109 225 c 0
 109 296 113 383 116 459 c 0
 119 530 32 534 2 532 c 1
 -4 596 l 1
376 598 m 1
 449 593 568 600 625 610 c 1
 615 468 l 1
 500 455 l 1
 505 542 422 540 384 538 c 1
 376 598 l 1
496 120 m 1
 498 161 498 203 498 247 c 0
 498 271 498 294 498 319 c 0
 498 405 499 488 509 588 c 1
 624 600 l 1
 613 456 607 312 607 220 c 0
 607 115 599 59 711 56 c 1
 720 0 l 1
 502 0 l 1
 502 0 509 102 515 128 c 1
 515 137 517 141 514 141 c 0
 507 141 496 120 496 120 c 1
EndSplineSet
EndChar

StartChar: k
Encoding: 107 107 35
GlifName: k
Width: 752
VWidth: 79
Flags: HMW
LayerCount: 3
Back
SplineSet
313 341 m 1
 342 334 359 347 393 357 c 1
 393 357 536 50 696 61 c 5
 708 10 l 1
 644 -11 606 -13 552 -10 c 1
 460.83984375 -3.140625 349.147460938 266.52734375 313 341 c 1
42 61 m 1
 118 57 153 89 160 137 c 1
 268 146 l 1
 266 51 330 50 348 51 c 1
 358 0 l 1
 52 0 l 1
 42 61 l 1
43 829 m 1
 126 827 292 850 292 850 c 1
 267 637 264 208 268 145 c 0
 271 101 238 49 320 49 c 1
 304 1 l 1
 129 0 l 1
 129 0 151 72 159 136 c 0
 169 271 168 529 163 719 c 0
 158 763 128 766 50 766 c 1
 43 829 l 1
249 307 m 1
 264 369 l 1
 295 367 311 359 338 359 c 1
 358 369 421 434 464 497 c 0
 478 518 484 544 406 541 c 1
 387 594 l 1
 464 588 538 590 635 594 c 1
 648 546 l 1
 618 544 589 520 558 490 c 0
 487 421 420 333 389 306 c 1
 358 299 301 307 249 307 c 1
EndSplineSet
Fore
SplineSet
313 341 m 1
 342 334 359 347 393 357 c 1
 393 357 536 50 696 61 c 5
 708 10 l 1
 644 -11 606 -13 552 -10 c 1
 460.83984375 -3.140625 349.147460938 266.52734375 313 341 c 1
42 61 m 1
 118 57 153 89 160 137 c 1
 268 146 l 1
 266 51 330 50 348 51 c 1
 358 0 l 1
 52 0 l 1
 42 61 l 1
43 829 m 1
 126 827 292 850 292 850 c 1
 267 637 264 208 268 145 c 0
 271 101 238 49 320 49 c 1
 304 1 l 1
 129 0 l 1
 129 0 151 72 159 136 c 0
 169 271 168 529 163 719 c 0
 158 763 128 766 50 766 c 1
 43 829 l 1
249 307 m 1
 264 369 l 1
 295 367 311 359 338 359 c 1
 358 369 421 434 464 497 c 0
 478 518 484 544 406 541 c 1
 387 594 l 1
 464 588 538 590 635 594 c 1
 648 546 l 1
 618 544 589 520 558 490 c 0
 487 421 420 333 389 306 c 1
 358 299 301 307 249 307 c 1
EndSplineSet
Layer: 2
SplineSet
313 341 m 1
 342 334 359 347 393 357 c 1
 393 357 536 50 696 61 c 5
 708 10 l 1
 644 -11 606 -13 552 -10 c 1
 460.83984375 -3.140625 349.147460938 266.52734375 313 341 c 1
42 61 m 1
 118 57 153 89 160 137 c 1
 268 146 l 1
 266 51 330 50 348 51 c 1
 358 0 l 1
 52 0 l 1
 42 61 l 1
43 829 m 1
 126 827 292 850 292 850 c 1
 267 637 264 208 268 145 c 0
 271 101 238 49 320 49 c 1
 304 1 l 1
 129 0 l 1
 129 0 151 72 159 136 c 0
 169 271 168 529 163 719 c 0
 158 763 128 766 50 766 c 1
 43 829 l 1
249 307 m 1
 264 369 l 1
 295 367 311 359 338 359 c 1
 358 369 421 434 464 497 c 0
 478 518 484 544 406 541 c 1
 387 594 l 1
 464 588 538 590 635 594 c 1
 648 546 l 1
 618 544 589 520 558 490 c 0
 487 421 420 333 389 306 c 1
 358 299 301 307 249 307 c 1
EndSplineSet
EndChar

StartChar: j
Encoding: 106 106 36
GlifName: j
Width: 366
VWidth: 79
Flags: HMW
LayerCount: 3
Back
SplineSet
-51 -240 m 1
 -28 -189 l 5
 118 -213 150 -81 164 67 c 5
 261 -8 l 1
 263 -184 196 -263 69 -264 c 0
 14 -265 -37 -248 -51 -240 c 1
31 584 m 1
 114 582 271 595 271 595 c 1
 261 540 260 67 261 -20 c 1
 164 60 l 5
 179 260 157 386 150 448 c 0
 145 493 109 523 37 523 c 1
 31 584 l 1
100 782 m 0
 100 824 134 852 175 852 c 0
 225 852 250 813 250 771 c 0
 250 729 216 701 175 701 c 0
 134 701 100 740 100 782 c 0
100 782 m 0
 100 824 134 852 175 852 c 0
 225 852 250 813 250 771 c 0
 250 729 216 701 175 701 c 0
 134 701 100 740 100 782 c 0
EndSplineSet
Fore
SplineSet
-51 -240 m 1
 -28 -189 l 5
 118 -213 150 -81 164 67 c 5
 261 -8 l 1
 263 -184 196 -263 69 -264 c 0
 14 -265 -37 -248 -51 -240 c 1
31 584 m 1
 114 582 271 595 271 595 c 1
 261 540 260 67 261 -20 c 1
 164 60 l 5
 179 260 157 386 150 448 c 0
 145 493 109 523 37 523 c 1
 31 584 l 1
100 782 m 0
 100 824 134 852 175 852 c 0
 225 852 250 813 250 771 c 0
 250 729 216 701 175 701 c 0
 134 701 100 740 100 782 c 0
100 782 m 0
 100 824 134 852 175 852 c 0
 225 852 250 813 250 771 c 0
 250 729 216 701 175 701 c 0
 134 701 100 740 100 782 c 0
EndSplineSet
Layer: 2
SplineSet
-51 -240 m 1
 -28 -189 l 5
 118 -213 150 -81 164 67 c 5
 261 -8 l 1
 263 -184 196 -263 69 -264 c 0
 14 -265 -37 -248 -51 -240 c 1
31 584 m 1
 114 582 271 595 271 595 c 1
 261 540 260 67 261 -20 c 1
 164 60 l 5
 179 260 157 386 150 448 c 0
 145 493 109 523 37 523 c 1
 31 584 l 1
100 782 m 0
 100 824 134 852 175 852 c 0
 225 852 250 813 250 771 c 0
 250 729 216 701 175 701 c 0
 134 701 100 740 100 782 c 0
100 782 m 0
 100 824 134 852 175 852 c 0
 225 852 250 813 250 771 c 0
 250 729 216 701 175 701 c 0
 134 701 100 740 100 782 c 0
EndSplineSet
EndChar

StartChar: comma
Encoding: 44 44 37
GlifName: comma
Width: 208
VWidth: 79
Flags: HMW
LayerCount: 3
Back
SplineSet
27.7900390625 44.1494140625 m 0
 33.4384765625 99.388671875 88.248046875 129.25 133.591796875 122.614257812 c 4
 188.484375 114.58203125 203.58203125 79.365234375 196.771484375 32.826171875 c 0
 189.9609375 -13.7099609375 157.451171875 -44.2998046875 111.727539062 -48.578125 c 1
 90.6279296875 -34.5205078125 21.7958984375 -13.4775390625 27.7900390625 44.1494140625 c 0
11.5849609375 -145.053710938 m 1
 20.6640625 -132.9765625 87.2392578125 -78.91796875 61.90625 14.1474609375 c 9
 139.66796875 42.4033203125 l 25
 146.012695312 2.4716796875 203.37890625 69.6455078125 196.771484375 32.826171875 c 0
 185.129882812 -30.0673828125 87.3388671875 -148.610351562 54.0146484375 -168.109375 c 1
 11.5849609375 -145.053710938 l 1
EndSplineSet
Fore
SplineSet
27.7900390625 44.1494140625 m 0
 33.4384765625 99.388671875 88.248046875 129.25 133.591796875 122.614257812 c 4
 188.484375 114.58203125 203.58203125 79.365234375 196.771484375 32.826171875 c 0
 189.9609375 -13.7099609375 157.451171875 -44.2998046875 111.727539062 -48.578125 c 1
 90.6279296875 -34.5205078125 21.7958984375 -13.4775390625 27.7900390625 44.1494140625 c 0
11.5849609375 -145.053710938 m 1
 20.6640625 -132.9765625 87.2392578125 -78.91796875 61.90625 14.1474609375 c 9
 139.66796875 42.4033203125 l 25
 146.012695312 2.4716796875 203.37890625 69.6455078125 196.771484375 32.826171875 c 0
 185.129882812 -30.0673828125 87.3388671875 -148.610351562 54.0146484375 -168.109375 c 1
 11.5849609375 -145.053710938 l 1
EndSplineSet
Layer: 2
SplineSet
27.7900390625 44.1494140625 m 0
 33.4384765625 99.388671875 88.248046875 129.25 133.591796875 122.614257812 c 4
 188.484375 114.58203125 203.58203125 79.365234375 196.771484375 32.826171875 c 0
 189.9609375 -13.7099609375 157.451171875 -44.2998046875 111.727539062 -48.578125 c 1
 90.6279296875 -34.5205078125 21.7958984375 -13.4775390625 27.7900390625 44.1494140625 c 0
11.5849609375 -145.053710938 m 1
 20.6640625 -132.9765625 87.2392578125 -78.91796875 61.90625 14.1474609375 c 9
 139.66796875 42.4033203125 l 25
 146.012695312 2.4716796875 203.37890625 69.6455078125 196.771484375 32.826171875 c 0
 185.129882812 -30.0673828125 87.3388671875 -148.610351562 54.0146484375 -168.109375 c 1
 11.5849609375 -145.053710938 l 1
EndSplineSet
EndChar

StartChar: acute
Encoding: 180 180 43
GlifName: acute
Width: 496
VWidth: 0
Flags: HMW
LayerCount: 3
Back
SplineSet
73 1120 m 9
 83 1066 l 17
 191 1081 368 1158 431 1204 c 9
 371 1298 l 21
 308 1232 165 1142 73 1120 c 9
EndSplineSet
Fore
SplineSet
73 1120 m 9
 83 1066 l 17
 191 1081 368 1158 431 1204 c 9
 371 1298 l 21
 308 1232 165 1142 73 1120 c 9
EndSplineSet
Layer: 2
SplineSet
73 1120 m 9
 83 1066 l 17
 191 1081 368 1158 431 1204 c 9
 371 1298 l 21
 308 1232 165 1142 73 1120 c 9
EndSplineSet
EndChar

StartChar: x
Encoding: 120 120 50
GlifName: x
Width: 643
VWidth: 79
Flags: HMW
LayerCount: 3
Back
SplineSet
14 598 m 1
 108 590 212 591 286 597 c 1
 300 542 l 1
 224 541 208 529 233 484 c 1
 255 449 306 381 340 336 c 1
 379 318 l 1
 430 248 544 61 624 58 c 1
 636 -2 l 1
 346 -2 l 1
 337 53 l 1
 373 49 426 69 385 136 c 0
 358 179 311 243 278 286 c 1
 244 286 l 1
 207 337 154 411 118 472 c 1
 87 527 69 541 22 540 c 1
 14 598 l 1
9 54 m 1
 66 53 92 78 115 110 c 0
 145 152 232 263 269 326 c 1
 328 326 l 1
 364 376 425 437 449 476 c 0
 477 523 454 537 400 538 c 1
 389 598 l 1
 462 592 557 592 622 598 c 1
 630 544 l 1
 556 544 558 520 520 465 c 0
 481 408 415 333 385 294 c 1
 332 284 l 1
 292 240 241 175 209 122 c 1
 190 87 182 47 248 50 c 1
 260 -2 l 1
 21 -2 l 1
 9 54 l 1
EndSplineSet
Fore
SplineSet
14 598 m 1
 108 590 212 591 286 597 c 1
 300 542 l 1
 224 541 208 529 233 484 c 1
 255 449 306 381 340 336 c 1
 379 318 l 1
 430 248 544 61 624 58 c 1
 636 -2 l 1
 346 -2 l 1
 337 53 l 1
 373 49 426 69 385 136 c 0
 358 179 311 243 278 286 c 1
 244 286 l 1
 207 337 154 411 118 472 c 1
 87 527 69 541 22 540 c 1
 14 598 l 1
9 54 m 1
 66 53 92 78 115 110 c 0
 145 152 232 263 269 326 c 1
 328 326 l 1
 364 376 425 437 449 476 c 0
 477 523 454 537 400 538 c 1
 389 598 l 1
 462 592 557 592 622 598 c 1
 630 544 l 1
 556 544 558 520 520 465 c 0
 481 408 415 333 385 294 c 1
 332 284 l 1
 292 240 241 175 209 122 c 1
 190 87 182 47 248 50 c 1
 260 -2 l 1
 21 -2 l 1
 9 54 l 1
EndSplineSet
Layer: 2
SplineSet
14 598 m 1
 108 590 212 591 286 597 c 1
 300 542 l 1
 224 541 208 529 233 484 c 1
 255 449 306 381 340 336 c 1
 379 318 l 1
 430 248 544 61 624 58 c 1
 636 -2 l 1
 346 -2 l 1
 337 53 l 1
 373 49 426 69 385 136 c 0
 358 179 311 243 278 286 c 1
 244 286 l 1
 207 337 154 411 118 472 c 1
 87 527 69 541 22 540 c 1
 14 598 l 1
9 54 m 1
 66 53 92 78 115 110 c 0
 145 152 232 263 269 326 c 1
 328 326 l 1
 364 376 425 437 449 476 c 0
 477 523 454 537 400 538 c 1
 389 598 l 1
 462 592 557 592 622 598 c 1
 630 544 l 1
 556 544 558 520 520 465 c 0
 481 408 415 333 385 294 c 1
 332 284 l 1
 292 240 241 175 209 122 c 1
 190 87 182 47 248 50 c 1
 260 -2 l 1
 21 -2 l 1
 9 54 l 1
EndSplineSet
Colour: ff0000
EndChar

StartChar: dieresis
Encoding: 168 168 51
GlifName: dieresis
Width: 496
VWidth: 0
Flags: HMW
LayerCount: 3
Back
SplineSet
73 1140 m 13
 83 1066 l 21
 191 1081 368 1158 431 1204 c 13
 371 1298 l 21
 328 1242 165 1162 73 1140 c 13
EndSplineSet
Fore
SplineSet
73 1140 m 13
 83 1066 l 21
 191 1081 368 1158 431 1204 c 13
 371 1298 l 21
 328 1242 165 1162 73 1140 c 13
EndSplineSet
Layer: 2
SplineSet
73 1140 m 13
 83 1066 l 21
 191 1081 368 1158 431 1204 c 13
 371 1298 l 21
 328 1242 165 1162 73 1140 c 13
EndSplineSet
EndChar

StartChar: z
Encoding: 122 122 52
GlifName: z
Width: 560
VWidth: 79
Flags: HMW
LayerCount: 3
Back
SplineSet
22 0 m 5
 186 0 251 0 506 0 c 1
 519 55 520 118 518 181 c 1
 516 181 469 175 459 175 c 1
 459 125 451 78 436 78 c 1
 367 68 299 67 291 67 c 0
 181 68 193 89 233 150 c 1
 252 182 483 491 528 546 c 5
 532 598 l 5
 458 593 217 588 62 598 c 1
 57 542 55 471 60 418 c 1
 121 424 l 1
 119 444 129 503 140 521 c 1
 188 529 319 534 375 525 c 1
 334 454 134 170 28 62 c 1
 22 0 l 5
EndSplineSet
Fore
SplineSet
22 0 m 5
 186 0 251 0 506 0 c 1
 519 55 520 118 518 181 c 1
 516 181 469 175 459 175 c 1
 459 125 451 78 436 78 c 1
 367 68 299 67 291 67 c 0
 181 68 193 89 233 150 c 1
 252 182 483 491 528 546 c 5
 532 598 l 5
 458 593 217 588 62 598 c 1
 57 542 55 471 60 418 c 1
 121 424 l 1
 119 444 129 503 140 521 c 1
 188 529 319 534 375 525 c 1
 334 454 134 170 28 62 c 1
 22 0 l 5
EndSplineSet
Layer: 2
SplineSet
22 0 m 5
 186 0 251 0 506 0 c 1
 519 55 520 118 518 181 c 1
 516 181 469 175 459 175 c 1
 459 125 451 78 436 78 c 1
 367 68 299 67 291 67 c 0
 181 68 193 89 233 150 c 1
 252 182 483 491 528 546 c 5
 532 598 l 5
 458 593 217 588 62 598 c 1
 57 542 55 471 60 418 c 1
 121 424 l 1
 119 444 129 503 140 521 c 1
 188 529 319 534 375 525 c 1
 334 454 134 170 28 62 c 1
 22 0 l 5
EndSplineSet
Colour: ff0000
EndChar

StartChar: E
Encoding: 69 69 54
GlifName: E_
Width: 679
VWidth: 79
Flags: HMW
LayerCount: 3
Back
SplineSet
40 61 m 5
 111 49 133 89 140 137 c 5
 264 135 l 1
 265 117 270 77 306 73 c 0
 396 64 500 79 537 86 c 1
 482 29 l 1
 515 68 550 145 557 204 c 1
 629 212 l 1
 629 212 638 139 638 80 c 24
 638 56 631 0 631 0 c 1
 440 0 239 0 48 0 c 5
 40 61 l 5
51 800 m 5
 127 794 273 795 356 795 c 0
 442 795 551 796 648 801 c 1
 648 801 651 744 651 720 c 24
 651 661 642 588 642 588 c 1
 570 596 l 1
 563 655 538 732 495 771 c 1
 590 722 l 1
 509 730 438 733 339 733 c 0
 289 733 277 703 274 673 c 0
 255 471 262 198 264 145 c 0
 266 99 274 44 333 44 c 1
 317 26 l 1
 112 30 l 5
 112 30 132 72 140 136 c 4
 150 265 155 489 150 663 c 5
 143 711 133 743 57 739 c 5
 51 800 l 5
194 367 m 1
 194 443 l 1
 394 444 l 1
 538 461 l 1
 538 370 l 1
 413 377 319 369 194 367 c 1
EndSplineSet
Fore
SplineSet
40 61 m 5
 111 49 133 89 140 137 c 5
 264 135 l 1
 265 117 270 77 306 73 c 0
 396 64 500 79 537 86 c 1
 482 29 l 1
 515 68 550 145 557 204 c 1
 629 212 l 1
 629 212 638 139 638 80 c 24
 638 56 631 0 631 0 c 1
 440 0 239 0 48 0 c 5
 40 61 l 5
51 800 m 5
 127 794 273 795 356 795 c 0
 442 795 551 796 648 801 c 1
 648 801 651 744 651 720 c 24
 651 661 642 588 642 588 c 1
 570 596 l 1
 563 655 538 732 495 771 c 1
 590 722 l 1
 509 730 438 733 339 733 c 0
 289 733 277 703 274 673 c 0
 255 471 262 198 264 145 c 0
 266 99 274 44 333 44 c 1
 317 26 l 1
 112 30 l 5
 112 30 132 72 140 136 c 4
 150 265 155 489 150 663 c 5
 143 711 133 743 57 739 c 5
 51 800 l 5
194 367 m 1
 194 443 l 1
 394 444 l 1
 538 461 l 1
 538 370 l 1
 413 377 319 369 194 367 c 1
EndSplineSet
Layer: 2
SplineSet
40 61 m 5
 111 49 133 89 140 137 c 5
 264 135 l 1
 265 117 270 77 306 73 c 0
 396 64 500 79 537 86 c 1
 482 29 l 1
 515 68 550 145 557 204 c 1
 629 212 l 1
 629 212 638 139 638 80 c 24
 638 56 631 0 631 0 c 1
 440 0 239 0 48 0 c 5
 40 61 l 5
51 800 m 5
 127 794 273 795 356 795 c 0
 442 795 551 796 648 801 c 1
 648 801 651 744 651 720 c 24
 651 661 642 588 642 588 c 1
 570 596 l 1
 563 655 538 732 495 771 c 1
 590 722 l 1
 509 730 438 733 339 733 c 0
 289 733 277 703 274 673 c 0
 255 471 262 198 264 145 c 0
 266 99 274 44 333 44 c 1
 317 26 l 1
 112 30 l 5
 112 30 132 72 140 136 c 4
 150 265 155 489 150 663 c 5
 143 711 133 743 57 739 c 5
 51 800 l 5
194 367 m 1
 194 443 l 1
 394 444 l 1
 538 461 l 1
 538 370 l 1
 413 377 319 369 194 367 c 1
EndSplineSet
Colour: ff0000
EndChar

StartChar: F
Encoding: 70 70 55
GlifName: F_
Width: 691
VWidth: 79
Flags: HMW
LayerCount: 3
Back
SplineSet
32 61 m 5
 115 57 137 89 145 137 c 5
 267 146 l 1
 265 51 377 50 394 51 c 1
 404 0 l 1
 42 0 l 5
 32 61 l 5
51 800 m 5
 127 794 253 794 336 794 c 0
 422 794 551 796 678 801 c 1
 678 801 681 744 681 720 c 24
 681 661 672 588 672 588 c 1
 600 596 l 1
 593 655 568 732 525 771 c 1
 610 721 l 1
 353 728 l 2
 295 729 279 705 276 663 c 0
 260 443 263 202 267 145 c 0
 270 101 287 49 366 49 c 1
 350 1 l 1
 117 0 l 5
 117 0 136 72 144 136 c 4
 154 270 155 482 150 663 c 5
 143 711 133 743 57 739 c 5
 51 800 l 5
184 377 m 5
 184 443 l 5
 424 444 l 1
 568 461 l 1
 568 370 l 1
 443 377 309 379 184 377 c 5
EndSplineSet
Fore
SplineSet
32 61 m 5
 115 57 137 89 145 137 c 5
 267 146 l 1
 265 51 377 50 394 51 c 1
 404 0 l 1
 42 0 l 5
 32 61 l 5
51 800 m 5
 127 794 253 794 336 794 c 0
 422 794 551 796 678 801 c 1
 678 801 681 744 681 720 c 24
 681 661 672 588 672 588 c 1
 600 596 l 1
 593 655 568 732 525 771 c 1
 610 721 l 1
 353 728 l 2
 295 729 279 705 276 663 c 0
 260 443 263 202 267 145 c 0
 270 101 287 49 366 49 c 1
 350 1 l 1
 117 0 l 5
 117 0 136 72 144 136 c 4
 154 270 155 482 150 663 c 5
 143 711 133 743 57 739 c 5
 51 800 l 5
184 377 m 5
 184 443 l 5
 424 444 l 1
 568 461 l 1
 568 370 l 1
 443 377 309 379 184 377 c 5
EndSplineSet
Layer: 2
SplineSet
32 61 m 5
 115 57 137 89 145 137 c 5
 267 146 l 1
 265 51 377 50 394 51 c 1
 404 0 l 1
 42 0 l 5
 32 61 l 5
51 800 m 5
 127 794 253 794 336 794 c 0
 422 794 551 796 678 801 c 1
 678 801 681 744 681 720 c 24
 681 661 672 588 672 588 c 1
 600 596 l 1
 593 655 568 732 525 771 c 1
 610 721 l 1
 353 728 l 2
 295 729 279 705 276 663 c 0
 260 443 263 202 267 145 c 0
 270 101 287 49 366 49 c 1
 350 1 l 1
 117 0 l 5
 117 0 136 72 144 136 c 4
 154 270 155 482 150 663 c 5
 143 711 133 743 57 739 c 5
 51 800 l 5
184 377 m 5
 184 443 l 5
 424 444 l 1
 568 461 l 1
 568 370 l 1
 443 377 309 379 184 377 c 5
EndSplineSet
Colour: ff0000
EndChar

StartChar: P
Encoding: 80 80 56
GlifName: P_
Width: 650
VWidth: 79
Flags: HMW
LayerCount: 3
Back
SplineSet
17 797 m 1
 205 785 276 802 426 802 c 0
 581 802 639 717 640 607 c 0
 642 438 521 303 363 301 c 4
 312 300 244 314 244 314 c 5
 243 214 243 197 253 123 c 0
 260 65 305 61 358 61 c 1
 380 0 l 1
 312 -1 107 0 33 0 c 1
 23 61 l 1
 102 51 133 77 135 127 c 0
 144 342 147 467 139 627 c 0
 136 685 119 741 27 734 c 1
 17 797 l 1
246 409 m 5
 280 383 324 366 376 367 c 4
 489 368 526 464 527 571 c 0
 528 684 455 744 375 746 c 0
 329 747 275 738 252 729 c 1
 244 652 247 507 246 409 c 5
EndSplineSet
Fore
SplineSet
17 797 m 1
 205 785 276 802 426 802 c 0
 581 802 639 717 640 607 c 0
 642 438 521 303 363 301 c 4
 312 300 244 314 244 314 c 5
 243 214 243 197 253 123 c 0
 260 65 305 61 358 61 c 1
 380 0 l 1
 312 -1 107 0 33 0 c 1
 23 61 l 1
 102 51 133 77 135 127 c 0
 144 342 147 467 139 627 c 0
 136 685 119 741 27 734 c 1
 17 797 l 1
246 409 m 5
 280 383 324 366 376 367 c 4
 489 368 526 464 527 571 c 0
 528 684 455 744 375 746 c 0
 329 747 275 738 252 729 c 1
 244 652 247 507 246 409 c 5
EndSplineSet
Layer: 2
SplineSet
17 797 m 1
 205 785 276 802 426 802 c 0
 581 802 639 717 640 607 c 0
 642 438 521 303 363 301 c 4
 312 300 244 314 244 314 c 5
 243 214 243 197 253 123 c 0
 260 65 305 61 358 61 c 1
 380 0 l 1
 312 -1 107 0 33 0 c 1
 23 61 l 1
 102 51 133 77 135 127 c 0
 144 342 147 467 139 627 c 0
 136 685 119 741 27 734 c 1
 17 797 l 1
246 409 m 5
 280 383 324 366 376 367 c 4
 489 368 526 464 527 571 c 0
 528 684 455 744 375 746 c 0
 329 747 275 738 252 729 c 1
 244 652 247 507 246 409 c 5
EndSplineSet
EndChar

StartChar: S
Encoding: 83 83 57
GlifName: S_
Width: 636
VWidth: 153
Flags: HMW
LayerCount: 3
Back
SplineSet
64 24 m 5
 59 69 61 149 73 226 c 5
 169 215 l 5
 173 155 187 98 225 54 c 5
 166 68 139 124 128 179 c 5
 165 136 197.40625 63.0537109375 297 54 c 4
 418 43 467.051757812 95.4609375 476 155 c 4
 502 328 140 345 105 554 c 4
 85 680 175 814 376 810 c 4
 496 808 572 781 572 781 c 5
 578 733 575 642 568 598 c 5
 476 609 l 5
 474 657 456 733 429 795 c 6
 499 630 l 5
 480 653 455 754 341 755 c 4
 260 756 222 692 231 623 c 4
 253 452 572 459 592 233 c 4
 605 83 514 -16 294 -17 c 4
 161.000976562 -17.6044921875 64 24 64 24 c 5
EndSplineSet
Fore
SplineSet
64 24 m 5
 59 69 61 149 73 226 c 5
 169 215 l 5
 173 155 187 98 225 54 c 5
 166 68 139 124 128 179 c 5
 165 136 197.40625 63.0537109375 297 54 c 4
 418 43 467.051757812 95.4609375 476 155 c 4
 502 328 140 345 105 554 c 4
 85 680 175 814 376 810 c 4
 496 808 572 781 572 781 c 5
 578 733 575 642 568 598 c 5
 476 609 l 5
 474 657 456 733 429 795 c 6
 499 630 l 5
 480 653 455 754 341 755 c 4
 260 756 222 692 231 623 c 4
 253 452 572 459 592 233 c 4
 605 83 514 -16 294 -17 c 4
 161.000976562 -17.6044921875 64 24 64 24 c 5
EndSplineSet
Layer: 2
SplineSet
64 24 m 5
 59 69 61 149 73 226 c 5
 169 215 l 5
 173 155 187 98 225 54 c 5
 166 68 139 124 128 179 c 5
 165 136 197.40625 63.0537109375 297 54 c 4
 418 43 467.051757812 95.4609375 476 155 c 4
 502 328 140 345 105 554 c 4
 85 680 175 814 376 810 c 4
 496 808 572 781 572 781 c 5
 578 733 575 642 568 598 c 5
 476 609 l 5
 474 657 456 733 429 795 c 6
 499 630 l 5
 480 653 455 754 341 755 c 4
 260 756 222 692 231 623 c 4
 253 452 572 459 592 233 c 4
 605 83 514 -16 294 -17 c 4
 161.000976562 -17.6044921875 64 24 64 24 c 5
EndSplineSet
EndChar

StartChar: U
Encoding: 85 85 58
GlifName: U_
Width: 767
VWidth: 79
Flags: HMW
LayerCount: 3
Back
SplineSet
-9 800 m 1
 57 794 75 791 147 792 c 0
 188 792 278 793 339 801 c 1
 339 801 344 755 347 736 c 1
 246 750 220 679 215 612 c 0
 206 484 204 298 208 255 c 0
 218 138 282.870117188 53.642578125 417 65 c 0
 511.917881182 73.0371532239 578.082839218 146.32902485 587 267 c 4
 596 388.791992188 587.44440464 515.368963952 591 641 c 1
 591 642 l 1
 590 733 534 738 464 728 c 1
 461 744 457 790 455 799 c 1
 521 793 569 790 641 791 c 0
 682 791 707 792 768 800 c 1
 768 800 773 754 776 735 c 1
 726 742 682 716 676 663 c 1
 670 499 674.932065851 346.626536095 666 240 c 4
 650 49 500 -14 371 -14 c 0
 256 -14 92 30 92 235 c 0
 92 359 103 556 99 640 c 0
 95 711 83 740 0 729 c 1
 -3 745 -7 791 -9 800 c 1
EndSplineSet
Fore
SplineSet
-9 800 m 1
 57 794 75 791 147 792 c 0
 188 792 278 793 339 801 c 1
 339 801 344 755 347 736 c 1
 246 750 220 679 215 612 c 0
 206 484 204 298 208 255 c 0
 218 138 282.870117188 53.642578125 417 65 c 0
 511.917881182 73.0371532239 578.082839218 146.32902485 587 267 c 4
 596 388.791992188 587.44440464 515.368963952 591 641 c 1
 591 642 l 1
 590 733 534 738 464 728 c 1
 461 744 457 790 455 799 c 1
 521 793 569 790 641 791 c 0
 682 791 707 792 768 800 c 1
 768 800 773 754 776 735 c 1
 726 742 682 716 676 663 c 1
 670 499 674.932065851 346.626536095 666 240 c 4
 650 49 500 -14 371 -14 c 0
 256 -14 92 30 92 235 c 0
 92 359 103 556 99 640 c 0
 95 711 83 740 0 729 c 1
 -3 745 -7 791 -9 800 c 1
EndSplineSet
Layer: 2
SplineSet
-9 800 m 1
 57 794 75 791 147 792 c 0
 188 792 278 793 339 801 c 1
 339 801 344 755 347 736 c 1
 246 750 220 679 215 612 c 0
 206 484 204 298 208 255 c 0
 218 138 282.870117188 53.642578125 417 65 c 0
 511.917881182 73.0371532239 578.082839218 146.32902485 587 267 c 4
 596 388.791992188 587.44440464 515.368963952 591 641 c 1
 591 642 l 1
 590 733 534 738 464 728 c 1
 461 744 457 790 455 799 c 1
 521 793 569 790 641 791 c 0
 682 791 707 792 768 800 c 1
 768 800 773 754 776 735 c 1
 726 742 682 716 676 663 c 1
 670 499 674.932065851 346.626536095 666 240 c 4
 650 49 500 -14 371 -14 c 0
 256 -14 92 30 92 235 c 0
 92 359 103 556 99 640 c 0
 95 711 83 740 0 729 c 1
 -3 745 -7 791 -9 800 c 1
EndSplineSet
Colour: ff0000
EndChar

StartChar: I
Encoding: 73 73 59
GlifName: I_
Width: 422
VWidth: 79
Flags: HMW
LayerCount: 3
Back
SplineSet
20 69 m 1
 93 54 145 63 150 146 c 0
 158 257 160 460 155 643 c 0
 153.37658823 702.416870788 116 739 28 729 c 1
 25 745 21 791 19 800 c 1
 85 794 133 791 205 792 c 0
 246 792 336 793 397 801 c 1
 397 801 402 755 405 736 c 1
 354 743 286.9921875 723.918945312 282 669 c 4
 270 537 265 354 273 139 c 0
 275.634791164 68.1899874628 337 62 389 69 c 1
 400 0 l 1
 28 -1 l 1
 20 69 l 1
EndSplineSet
Fore
SplineSet
20 69 m 1
 93 54 145 63 150 146 c 0
 158 257 160 460 155 643 c 0
 153.37658823 702.416870788 116 739 28 729 c 1
 25 745 21 791 19 800 c 1
 85 794 133 791 205 792 c 0
 246 792 336 793 397 801 c 1
 397 801 402 755 405 736 c 1
 354 743 286.9921875 723.918945312 282 669 c 4
 270 537 265 354 273 139 c 0
 275.634791164 68.1899874628 337 62 389 69 c 1
 400 0 l 1
 28 -1 l 1
 20 69 l 1
EndSplineSet
Layer: 2
SplineSet
20 69 m 1
 93 54 145 63 150 146 c 0
 158 257 160 460 155 643 c 0
 153.37658823 702.416870788 116 739 28 729 c 1
 25 745 21 791 19 800 c 1
 85 794 133 791 205 792 c 0
 246 792 336 793 397 801 c 1
 397 801 402 755 405 736 c 1
 354 743 286.9921875 723.918945312 282 669 c 4
 270 537 265 354 273 139 c 0
 275.634791164 68.1899874628 337 62 389 69 c 1
 400 0 l 1
 28 -1 l 1
 20 69 l 1
EndSplineSet
EndChar

StartChar: O
Encoding: 79 79 60
GlifName: O_
Width: 806
VWidth: 153
Flags: HMW
LayerCount: 3
Back
SplineSet
31.0029296875 302.139648438 m 0
 18.8486328125 592.892578125 197.879537172 795.476723072 433.72265625 804.151367188 c 0
 620.637695312 811.026367188 761.21875 709.872070312 762.262695312 450.750976562 c 0
 763.397460938 217.6484375 656.276602785 -9.76113462238 369.286132812 -15.2470703125 c 0
 160.286132812 -19.2421875 39.7724609375 108.328125 31.0029296875 302.139648438 c 0
156.572265625 392.72265625 m 4
 157.981335073 190.638889192 257.008789062 36.220703125 427.352539062 57.8310546875 c 4
 565.061523438 75.3017578125 638.526367188 200.548828125 637.521484375 412.618164062 c 0
 636.597056058 607.708473936 515.778258235 754.041193827 362.448242188 731.96484375 c 4
 272.952142366 719.079256954 154.912109375 630.81640625 156.572265625 392.72265625 c 4
EndSplineSet
Fore
SplineSet
31.0029296875 302.139648438 m 0
 18.8486328125 592.892578125 197.879537172 795.476723072 433.72265625 804.151367188 c 0
 620.637695312 811.026367188 761.21875 709.872070312 762.262695312 450.750976562 c 0
 763.397460938 217.6484375 656.276602785 -9.76113462238 369.286132812 -15.2470703125 c 0
 160.286132812 -19.2421875 39.7724609375 108.328125 31.0029296875 302.139648438 c 0
156.572265625 392.72265625 m 4
 157.981335073 190.638889192 257.008789062 36.220703125 427.352539062 57.8310546875 c 4
 565.061523438 75.3017578125 638.526367188 200.548828125 637.521484375 412.618164062 c 0
 636.597056058 607.708473936 515.778258235 754.041193827 362.448242188 731.96484375 c 4
 272.952142366 719.079256954 154.912109375 630.81640625 156.572265625 392.72265625 c 4
EndSplineSet
Layer: 2
SplineSet
31.0029296875 302.139648438 m 0
 18.8486328125 592.892578125 197.879537172 795.476723072 433.72265625 804.151367188 c 0
 620.637695312 811.026367188 761.21875 709.872070312 762.262695312 450.750976562 c 0
 763.397460938 217.6484375 656.276602785 -9.76113462238 369.286132812 -15.2470703125 c 0
 160.286132812 -19.2421875 39.7724609375 108.328125 31.0029296875 302.139648438 c 0
156.572265625 392.72265625 m 4
 157.981335073 190.638889192 257.008789062 36.220703125 427.352539062 57.8310546875 c 4
 565.061523438 75.3017578125 638.526367188 200.548828125 637.521484375 412.618164062 c 0
 636.597056058 607.708473936 515.778258235 754.041193827 362.448242188 731.96484375 c 4
 272.952142366 719.079256954 154.912109375 630.81640625 156.572265625 392.72265625 c 4
EndSplineSet
EndChar

StartChar: T
Encoding: 84 84 81
GlifName: T_
Width: 660
VWidth: 79
Flags: HMW
LayerCount: 3
Back
SplineSet
-6 594 m 1
 -1 641 6 743 7 800 c 1
 115 794 202 791 320 792 c 0
 389 792 565 793 667 801 c 1
 665.043945312 773.125 655 592.036132812 655 588 c 1
 583 596 l 1
 576 655 551 732 508 771 c 1
 593 702 l 1
 504 733 405 721 320 728 c 1
 229 727 120 723 83 724 c 5
 137 761 l 5
 99 725 81 641 77 605 c 5
 -6 594 l 1
145 61 m 1
 221 57 244 89 251 137 c 1
 376 146 l 1
 374 51 460 50 478 51 c 1
 488 0 l 1
 155 0 l 1
 145 61 l 1
196 759 m 1
 259 757 400 780 400 780 c 1
 375 588 372 202 376 145 c 0
 379 101 368 49 450 49 c 1
 434 1 l 1
 222 0 l 1
 222 0 245 72 250 136 c 0
 260 266 264 516 256 699 c 0
 254 743 233 746 203 746 c 1
 196 759 l 1
EndSplineSet
Fore
SplineSet
-6 594 m 1
 -1 641 6 743 7 800 c 1
 115 794 202 791 320 792 c 0
 389 792 565 793 667 801 c 1
 665.043945312 773.125 655 592.036132812 655 588 c 1
 583 596 l 1
 576 655 551 732 508 771 c 1
 593 702 l 1
 504 733 405 721 320 728 c 1
 229 727 120 723 83 724 c 5
 137 761 l 5
 99 725 81 641 77 605 c 5
 -6 594 l 1
145 61 m 1
 221 57 244 89 251 137 c 1
 376 146 l 1
 374 51 460 50 478 51 c 1
 488 0 l 1
 155 0 l 1
 145 61 l 1
196 759 m 1
 259 757 400 780 400 780 c 1
 375 588 372 202 376 145 c 0
 379 101 368 49 450 49 c 1
 434 1 l 1
 222 0 l 1
 222 0 245 72 250 136 c 0
 260 266 264 516 256 699 c 0
 254 743 233 746 203 746 c 1
 196 759 l 1
EndSplineSet
Layer: 2
SplineSet
-6 594 m 1
 -1 641 6 743 7 800 c 1
 115 794 202 791 320 792 c 0
 389 792 565 793 667 801 c 1
 665.043945312 773.125 655 592.036132812 655 588 c 1
 583 596 l 1
 576 655 551 732 508 771 c 1
 593 702 l 1
 504 733 405 721 320 728 c 1
 229 727 120 723 83 724 c 5
 137 761 l 5
 99 725 81 641 77 605 c 5
 -6 594 l 1
145 61 m 1
 221 57 244 89 251 137 c 1
 376 146 l 1
 374 51 460 50 478 51 c 1
 488 0 l 1
 155 0 l 1
 145 61 l 1
196 759 m 1
 259 757 400 780 400 780 c 1
 375 588 372 202 376 145 c 0
 379 101 368 49 450 49 c 1
 434 1 l 1
 222 0 l 1
 222 0 245 72 250 136 c 0
 260 266 264 516 256 699 c 0
 254 743 233 746 203 746 c 1
 196 759 l 1
EndSplineSet
EndChar

StartChar: R
Encoding: 82 82 82
GlifName: R_
Width: 788
VWidth: 79
Flags: HMW
LayerCount: 3
Back
SplineSet
17 797 m 1
 205 785 276 802 426 802 c 0
 581 802 639 717 640 607 c 0
 642 438 521 343 363 341 c 0
 312 340 244 334 244 334 c 1
 243 234 243 197 253 123 c 0
 260 65 305 61 358 61 c 1
 380 0 l 1
 312 -1 107 0 33 0 c 1
 23 61 l 1
 102 51 133 77 135 127 c 0
 144 342 147 467 139 627 c 0
 136 685 119 741 27 734 c 1
 17 797 l 1
246 429 m 1
 273 413 324.350585938 400.890625 376 407 c 0
 469 418 516 464 517 571 c 0
 518 684 455 744 375 746 c 0
 329 747 275 738 252 729 c 1
 244 652 247 527 246 429 c 1
383 351 m 1
 412 344 429 387 463 397 c 1
 463 397 596 72 766 63 c 5
 778 0 l 1
 602 0 l 1
 510.83984375 6.859375 419.147460938 276.52734375 383 351 c 1
EndSplineSet
Fore
SplineSet
17 797 m 1
 205 785 276 802 426 802 c 0
 581 802 639 717 640 607 c 0
 642 438 521 343 363 341 c 0
 312 340 244 334 244 334 c 1
 243 234 243 197 253 123 c 0
 260 65 305 61 358 61 c 1
 380 0 l 1
 312 -1 107 0 33 0 c 1
 23 61 l 1
 102 51 133 77 135 127 c 0
 144 342 147 467 139 627 c 0
 136 685 119 741 27 734 c 1
 17 797 l 1
246 429 m 1
 273 413 324.350585938 400.890625 376 407 c 0
 469 418 516 464 517 571 c 0
 518 684 455 744 375 746 c 0
 329 747 275 738 252 729 c 1
 244 652 247 527 246 429 c 1
383 351 m 1
 412 344 429 387 463 397 c 1
 463 397 596 72 766 63 c 5
 778 0 l 1
 602 0 l 1
 510.83984375 6.859375 419.147460938 276.52734375 383 351 c 1
EndSplineSet
Layer: 2
SplineSet
17 797 m 1
 205 785 276 802 426 802 c 0
 581 802 639 717 640 607 c 0
 642 438 521 343 363 341 c 0
 312 340 244 334 244 334 c 1
 243 234 243 197 253 123 c 0
 260 65 305 61 358 61 c 1
 380 0 l 1
 312 -1 107 0 33 0 c 1
 23 61 l 1
 102 51 133 77 135 127 c 0
 144 342 147 467 139 627 c 0
 136 685 119 741 27 734 c 1
 17 797 l 1
246 429 m 1
 273 413 324.350585938 400.890625 376 407 c 0
 469 418 516 464 517 571 c 0
 518 684 455 744 375 746 c 0
 329 747 275 738 252 729 c 1
 244 652 247 527 246 429 c 1
383 351 m 1
 412 344 429 387 463 397 c 1
 463 397 596 72 766 63 c 5
 778 0 l 1
 602 0 l 1
 510.83984375 6.859375 419.147460938 276.52734375 383 351 c 1
EndSplineSet
EndChar

StartChar: Q
Encoding: 81 81 83
GlifName: Q_
Width: 842
VWidth: 153
Flags: HMW
LayerCount: 3
Back
SplineSet
234 12 m 1
 305 21 l 1
 361 -80 567 -126 680 -128 c 0
 803 -130 892 -96 892 -96 c 1
 907.965820312 -130 l 1
 898 -214 l 1
 835 -234 768 -240 655 -239 c 0
 411 -235 263 -58 234 12 c 1
EndSplineSet
Refer: 60 79 N 1 0 0 1 0 0 2
Fore
SplineSet
234 12 m 1
 305 21 l 1
 361 -80 567 -126 680 -128 c 0
 803 -130 892 -96 892 -96 c 1
 907.965820312 -130 l 1
 898 -214 l 1
 835 -234 768 -240 655 -239 c 0
 411 -235 263 -58 234 12 c 1
EndSplineSet
Refer: 60 79 N 1 0 0 1 0 0 2
Layer: 2
SplineSet
234 12 m 1
 305 21 l 1
 361 -80 567 -126 680 -128 c 0
 803 -130 892 -96 892 -96 c 1
 907.965820312 -130 l 1
 898 -214 l 1
 835 -234 768 -240 655 -239 c 0
 411 -235 263 -58 234 12 c 1
EndSplineSet
Refer: 60 79 N 1 0 0 1 0 0 2
EndChar

StartChar: L
Encoding: 76 76 84
GlifName: L_
Width: 679
VWidth: 79
Flags: HMW
LayerCount: 3
Back
SplineSet
60 0 m 5
 52 69 l 5
 145 46 148 89 155 137 c 1
 269 135 l 1
 270 117 275 77 311 73 c 0
 401 64 505 79 542 86 c 1
 487 29 l 1
 520 68 555 145 562 204 c 1
 634 212 l 1
 634 212 643 139 643 80 c 24
 643 56 636 0 636 0 c 1
 440 0 256 0 60 0 c 5
61 800 m 1
 137 794 193 792 276 792 c 0
 314 792 351 794 396 796 c 1
 392 732 l 1
 375 732 357 733 339 733 c 0
 289 733 287 693 285 673 c 0
 263 471 267 198 269 145 c 0
 271 99 279 44 338 44 c 1
 322 26 l 1
 127 30 l 1
 127 30 147 72 155 136 c 0
 165 265 165 489 160 663 c 1
 153 711 143 743 67 739 c 1
 61 800 l 1
EndSplineSet
Fore
SplineSet
60 0 m 5
 52 69 l 5
 145 46 148 89 155 137 c 1
 269 135 l 1
 270 117 275 77 311 73 c 0
 401 64 505 79 542 86 c 1
 487 29 l 1
 520 68 555 145 562 204 c 1
 634 212 l 1
 634 212 643 139 643 80 c 24
 643 56 636 0 636 0 c 1
 440 0 256 0 60 0 c 5
61 800 m 1
 137 794 193 792 276 792 c 0
 314 792 351 794 396 796 c 1
 392 732 l 1
 375 732 357 733 339 733 c 0
 289 733 287 693 285 673 c 0
 263 471 267 198 269 145 c 0
 271 99 279 44 338 44 c 1
 322 26 l 1
 127 30 l 1
 127 30 147 72 155 136 c 0
 165 265 165 489 160 663 c 1
 153 711 143 743 67 739 c 1
 61 800 l 1
EndSplineSet
Layer: 2
SplineSet
60 0 m 5
 52 69 l 5
 145 46 148 89 155 137 c 1
 269 135 l 1
 270 117 275 77 311 73 c 0
 401 64 505 79 542 86 c 1
 487 29 l 1
 520 68 555 145 562 204 c 1
 634 212 l 1
 634 212 643 139 643 80 c 24
 643 56 636 0 636 0 c 1
 440 0 256 0 60 0 c 5
61 800 m 1
 137 794 193 792 276 792 c 0
 314 792 351 794 396 796 c 1
 392 732 l 1
 375 732 357 733 339 733 c 0
 289 733 287 693 285 673 c 0
 263 471 267 198 269 145 c 0
 271 99 279 44 338 44 c 1
 322 26 l 1
 127 30 l 1
 127 30 147 72 155 136 c 0
 165 265 165 489 160 663 c 1
 153 711 143 743 67 739 c 1
 61 800 l 1
EndSplineSet
EndChar

StartChar: G
Encoding: 71 71 85
GlifName: G_
Width: 827
VWidth: 79
Flags: HMW
LayerCount: 3
Back
SplineSet
37 299 m 0
 35 537 172 802 503 802 c 0
 624 802 703 767 703 767 c 1
 706 716 712 616 709 574 c 1
 643 577 l 1
 611 665 548 748 502 755 c 1
 516 776 698 747 645 652 c 1
 628 656 551 734 428 734 c 0
 278 734 174 602 171 406 c 0
 168 232 239 50 426 47 c 0
 535 45 581 97 626 149 c 1
 695 116 l 1
 622 1 499 -27 392 -27 c 0
 178 -27 38 92 37 299 c 0
555 46 m 5
 579.953125 108.3828125 582.502339993 195.282167658 581.641625227 266.156616799 c 0
 578.362127455 306.724019986 553.82131021 332.622174208 485 329 c 1
 479 390 l 1
 592 382 666 385 774 390 c 1
 784 330 l 1
 767.152585212 330.935967488 705.627378333 338.00418095 699.45710901 261.011195447 c 1
 700.775446194 208.198485326 699.40071391 151.205709564 695 116 c 1
 555 46 l 5
EndSplineSet
Fore
SplineSet
37 299 m 0
 35 537 172 802 503 802 c 0
 624 802 703 767 703 767 c 1
 706 716 712 616 709 574 c 1
 643 577 l 1
 611 665 548 748 502 755 c 1
 516 776 698 747 645 652 c 1
 628 656 551 734 428 734 c 0
 278 734 174 602 171 406 c 0
 168 232 239 50 426 47 c 0
 535 45 581 97 626 149 c 1
 695 116 l 1
 622 1 499 -27 392 -27 c 0
 178 -27 38 92 37 299 c 0
555 46 m 5
 579.953125 108.3828125 582.502339993 195.282167658 581.641625227 266.156616799 c 0
 578.362127455 306.724019986 553.82131021 332.622174208 485 329 c 1
 479 390 l 1
 592 382 666 385 774 390 c 1
 784 330 l 1
 767.152585212 330.935967488 705.627378333 338.00418095 699.45710901 261.011195447 c 1
 700.775446194 208.198485326 699.40071391 151.205709564 695 116 c 1
 555 46 l 5
EndSplineSet
Layer: 2
SplineSet
37 299 m 0
 35 537 172 802 503 802 c 0
 624 802 703 767 703 767 c 1
 706 716 712 616 709 574 c 1
 643 577 l 1
 611 665 548 748 502 755 c 1
 516 776 698 747 645 652 c 1
 628 656 551 734 428 734 c 0
 278 734 174 602 171 406 c 0
 168 232 239 50 426 47 c 0
 535 45 581 97 626 149 c 1
 695 116 l 1
 622 1 499 -27 392 -27 c 0
 178 -27 38 92 37 299 c 0
555 46 m 5
 579.953125 108.3828125 582.502339993 195.282167658 581.641625227 266.156616799 c 0
 578.362127455 306.724019986 553.82131021 332.622174208 485 329 c 1
 479 390 l 1
 592 382 666 385 774 390 c 1
 784 330 l 1
 767.152585212 330.935967488 705.627378333 338.00418095 699.45710901 261.011195447 c 1
 700.775446194 208.198485326 699.40071391 151.205709564 695 116 c 1
 555 46 l 5
EndSplineSet
Colour: ff0000
EndChar

StartChar: D
Encoding: 68 68 86
GlifName: D_
Width: 799
VWidth: 79
Flags: HMW
LayerCount: 3
Back
SplineSet
17 798 m 1
 209 786 356 803 446 803 c 0
 614 803 768 711 766 463 c 0
 762 142 597 4 320 0 c 0
 252 -1 107 0 33 0 c 1
 23 61 l 1
 102 51 133 77 135 127 c 0
 144 342 147 468 139 628 c 0
 136 686 119 742 27 735 c 1
 17 798 l 1
252 719 m 1
 236 483 240 338 253 142 c 1
 260 80 305 74 358 75 c 0
 549 77 646 196 652 372 c 0
 660 596 541 734 373 738 c 0
 319 739 279 729 252 719 c 1
EndSplineSet
Fore
SplineSet
17 798 m 1
 209 786 356 803 446 803 c 0
 614 803 768 711 766 463 c 0
 762 142 597 4 320 0 c 0
 252 -1 107 0 33 0 c 1
 23 61 l 1
 102 51 133 77 135 127 c 0
 144 342 147 468 139 628 c 0
 136 686 119 742 27 735 c 1
 17 798 l 1
252 719 m 1
 236 483 240 338 253 142 c 1
 260 80 305 74 358 75 c 0
 549 77 646 196 652 372 c 0
 660 596 541 734 373 738 c 0
 319 739 279 729 252 719 c 1
EndSplineSet
Layer: 2
SplineSet
17 798 m 1
 209 786 356 803 446 803 c 0
 614 803 768 711 766 463 c 0
 762 142 597 4 320 0 c 0
 252 -1 107 0 33 0 c 1
 23 61 l 1
 102 51 133 77 135 127 c 0
 144 342 147 468 139 628 c 0
 136 686 119 742 27 735 c 1
 17 798 l 1
252 719 m 1
 236 483 240 338 253 142 c 1
 260 80 305 74 358 75 c 0
 549 77 646 196 652 372 c 0
 660 596 541 734 373 738 c 0
 319 739 279 729 252 719 c 1
EndSplineSet
Colour: ff0000
EndChar

StartChar: J
Encoding: 74 74 87
GlifName: J_
Width: 422
VWidth: 79
Flags: HMW
LayerCount: 3
Back
SplineSet
-34 -193 m 1
 -7 -142 l 1
 173 -187 162 -18 166 84 c 0
 171 205 158 460 155 643 c 0
 154 734 68 739 38 729 c 1
 35 745 31 791 29 800 c 1
 95 794 133 791 205 792 c 0
 246 792 326 793 387 801 c 1
 387 801 392 755 395 736 c 1
 344 743 285 720 282 665 c 0
 271 415 272 261 278 39 c 0
 282 -94 243 -226 76 -227 c 0
 21 -227 -20 -201 -34 -193 c 1
EndSplineSet
Fore
SplineSet
-34 -193 m 1
 -7 -142 l 1
 173 -187 162 -18 166 84 c 0
 171 205 158 460 155 643 c 0
 154 734 68 739 38 729 c 1
 35 745 31 791 29 800 c 1
 95 794 133 791 205 792 c 0
 246 792 326 793 387 801 c 1
 387 801 392 755 395 736 c 1
 344 743 285 720 282 665 c 0
 271 415 272 261 278 39 c 0
 282 -94 243 -226 76 -227 c 0
 21 -227 -20 -201 -34 -193 c 1
EndSplineSet
Layer: 2
SplineSet
-34 -193 m 1
 -7 -142 l 1
 173 -187 162 -18 166 84 c 0
 171 205 158 460 155 643 c 0
 154 734 68 739 38 729 c 1
 35 745 31 791 29 800 c 1
 95 794 133 791 205 792 c 0
 246 792 326 793 387 801 c 1
 387 801 392 755 395 736 c 1
 344 743 285 720 282 665 c 0
 271 415 272 261 278 39 c 0
 282 -94 243 -226 76 -227 c 0
 21 -227 -20 -201 -34 -193 c 1
EndSplineSet
EndChar

StartChar: K
Encoding: 75 75 88
GlifName: K_
Width: 752
VWidth: 79
Flags: HMW
LayerCount: 3
Back
SplineSet
22 64 m 1
 98 60 133 89 140 137 c 1
 248 146 l 1
 246 51 310 53 328 54 c 1
 338 0 l 1
 32 0 l 1
 22 64 l 1
23 798 m 1
 106 796 272 810 272 810 c 1
 247 597 244 208 248 145 c 0
 251 101 218 52 300 52 c 1
 284 1 l 1
 109 0 l 1
 109 0 131 72 139 136 c 0
 149 271 148 489 143 679 c 0
 138 723 108 735 30 735 c 1
 23 798 l 1
194 489 m 5
 225 477 258 458 345 458 c 1
 365 468 475 629 518 692 c 0
 532 713 528 739 450 736 c 1
 441 799 l 1
 558 797 709 802 709 802 c 1
 718 737 l 1
 678 738 650 731 621 699 c 0
 560 630 420 416 389 389 c 1
 358 387 281 390 229 380 c 1
 194 489 l 5
253 469 m 1
 282 462 342 456 376 466 c 1
 376 466 616 60 766 61 c 1
 778 0 l 1
 664 5 586 3 472 0 c 1
 458 57 l 1
 494 53 552 61 507 126 c 1
 485 156 306 390 253 469 c 1
EndSplineSet
Fore
SplineSet
22 64 m 1
 98 60 133 89 140 137 c 1
 248 146 l 1
 246 51 310 53 328 54 c 1
 338 0 l 1
 32 0 l 1
 22 64 l 1
23 798 m 1
 106 796 272 810 272 810 c 1
 247 597 244 208 248 145 c 0
 251 101 218 52 300 52 c 1
 284 1 l 1
 109 0 l 1
 109 0 131 72 139 136 c 0
 149 271 148 489 143 679 c 0
 138 723 108 735 30 735 c 1
 23 798 l 1
194 489 m 5
 225 477 258 458 345 458 c 1
 365 468 475 629 518 692 c 0
 532 713 528 739 450 736 c 1
 441 799 l 1
 558 797 709 802 709 802 c 1
 718 737 l 1
 678 738 650 731 621 699 c 0
 560 630 420 416 389 389 c 1
 358 387 281 390 229 380 c 1
 194 489 l 5
253 469 m 1
 282 462 342 456 376 466 c 1
 376 466 616 60 766 61 c 1
 778 0 l 1
 664 5 586 3 472 0 c 1
 458 57 l 1
 494 53 552 61 507 126 c 1
 485 156 306 390 253 469 c 1
EndSplineSet
Layer: 2
SplineSet
22 64 m 1
 98 60 133 89 140 137 c 1
 248 146 l 1
 246 51 310 53 328 54 c 1
 338 0 l 1
 32 0 l 1
 22 64 l 1
23 798 m 1
 106 796 272 810 272 810 c 1
 247 597 244 208 248 145 c 0
 251 101 218 52 300 52 c 1
 284 1 l 1
 109 0 l 1
 109 0 131 72 139 136 c 0
 149 271 148 489 143 679 c 0
 138 723 108 735 30 735 c 1
 23 798 l 1
194 489 m 5
 225 477 258 458 345 458 c 1
 365 468 475 629 518 692 c 0
 532 713 528 739 450 736 c 1
 441 799 l 1
 558 797 709 802 709 802 c 1
 718 737 l 1
 678 738 650 731 621 699 c 0
 560 630 420 416 389 389 c 1
 358 387 281 390 229 380 c 1
 194 489 l 5
253 469 m 1
 282 462 342 456 376 466 c 1
 376 466 616 60 766 61 c 1
 778 0 l 1
 664 5 586 3 472 0 c 1
 458 57 l 1
 494 53 552 61 507 126 c 1
 485 156 306 390 253 469 c 1
EndSplineSet
Colour: ff0000
EndChar

StartChar: Z
Encoding: 90 90 89
GlifName: Z_
Width: 679
VWidth: 79
Flags: HMW
LayerCount: 3
Back
SplineSet
12 0 m 1
 13 14 17 46 19 71 c 1
 93 128 347 542 447 702 c 0
 458 720 463 733 413 733 c 0
 340 733 221 731 163 727 c 1
 140 687 137 637 132 596 c 1
 60 588 l 1
 60 588 51 661 51 720 c 0
 51 744 54 801 54 801 c 1
 101 803 210 796 296 796 c 0
 379 796 581 794 657 800 c 1
 645 739 l 1
 556 672 196 74 177 56 c 1
 136 115 l 1
 167 85 251 76 307 73 c 0
 384 68 500 75 547 82 c 1
 567 120 574 166 578 204 c 1
 650 212 l 1
 650 212 659 139 659 80 c 0
 659 56 652 0 652 0 c 1
 439 0 225 0 12 0 c 1
EndSplineSet
Fore
SplineSet
12 0 m 1
 13 14 17 46 19 71 c 1
 93 128 347 542 447 702 c 0
 458 720 463 733 413 733 c 0
 340 733 221 731 163 727 c 1
 140 687 137 637 132 596 c 1
 60 588 l 1
 60 588 51 661 51 720 c 0
 51 744 54 801 54 801 c 1
 101 803 210 796 296 796 c 0
 379 796 581 794 657 800 c 1
 645 739 l 1
 556 672 196 74 177 56 c 1
 136 115 l 1
 167 85 251 76 307 73 c 0
 384 68 500 75 547 82 c 1
 567 120 574 166 578 204 c 1
 650 212 l 1
 650 212 659 139 659 80 c 0
 659 56 652 0 652 0 c 1
 439 0 225 0 12 0 c 1
EndSplineSet
Layer: 2
SplineSet
12 0 m 1
 13 14 17 46 19 71 c 1
 93 128 347 542 447 702 c 0
 458 720 463 733 413 733 c 0
 340 733 221 731 163 727 c 1
 140 687 137 637 132 596 c 1
 60 588 l 1
 60 588 51 661 51 720 c 0
 51 744 54 801 54 801 c 1
 101 803 210 796 296 796 c 0
 379 796 581 794 657 800 c 1
 645 739 l 1
 556 672 196 74 177 56 c 1
 136 115 l 1
 167 85 251 76 307 73 c 0
 384 68 500 75 547 82 c 1
 567 120 574 166 578 204 c 1
 650 212 l 1
 650 212 659 139 659 80 c 0
 659 56 652 0 652 0 c 1
 439 0 225 0 12 0 c 1
EndSplineSet
EndChar

StartChar: Y
Encoding: 89 89 90
GlifName: Y_
Width: 724
VWidth: 79
Flags: HMW
LayerCount: 3
Back
SplineSet
-16 802 m 1
 98 797 182 799 296 802 c 1
 310 748 l 1
 234 742 211 725 236 670 c 1
 262 622 290 553 326 488 c 1
 337 453 364 385 364 385 c 1
 408 457 474 559 535 665 c 5
 563 724 514 742 446 739 c 1
 437 802 l 1
 534 796 630 798 727 802 c 1
 738 744 l 1
 678 742 649 710 620 662 c 0
 524 505 443 402 406 322 c 1
 377 319 338 310 304 300 c 1
 250 402 218 483 111 668 c 1
 82 733 39 745 -8 744 c 1
 -16 802 l 1
195 69 m 1
 268 54 289 93 296 145 c 0
 303 196 304 249 290 373 c 1
 421 385 l 1
 399 243 412 169 423 122 c 0
 434 73 455 62 507 69 c 1
 528 0 l 1
 203 -1 l 1
 195 69 l 1
EndSplineSet
Fore
SplineSet
-16 802 m 1
 98 797 182 799 296 802 c 1
 310 748 l 1
 234 742 211 725 236 670 c 1
 262 622 290 553 326 488 c 1
 337 453 364 385 364 385 c 1
 408 457 474 559 535 665 c 5
 563 724 514 742 446 739 c 1
 437 802 l 1
 534 796 630 798 727 802 c 1
 738 744 l 1
 678 742 649 710 620 662 c 0
 524 505 443 402 406 322 c 1
 377 319 338 310 304 300 c 1
 250 402 218 483 111 668 c 1
 82 733 39 745 -8 744 c 1
 -16 802 l 1
195 69 m 1
 268 54 289 93 296 145 c 0
 303 196 304 249 290 373 c 1
 421 385 l 1
 399 243 412 169 423 122 c 0
 434 73 455 62 507 69 c 1
 528 0 l 1
 203 -1 l 1
 195 69 l 1
EndSplineSet
Layer: 2
SplineSet
-16 802 m 1
 98 797 182 799 296 802 c 1
 310 748 l 1
 234 742 211 725 236 670 c 1
 262 622 290 553 326 488 c 1
 337 453 364 385 364 385 c 1
 408 457 474 559 535 665 c 5
 563 724 514 742 446 739 c 1
 437 802 l 1
 534 796 630 798 727 802 c 1
 738 744 l 1
 678 742 649 710 620 662 c 0
 524 505 443 402 406 322 c 1
 377 319 338 310 304 300 c 1
 250 402 218 483 111 668 c 1
 82 733 39 745 -8 744 c 1
 -16 802 l 1
195 69 m 1
 268 54 289 93 296 145 c 0
 303 196 304 249 290 373 c 1
 421 385 l 1
 399 243 412 169 423 122 c 0
 434 73 455 62 507 69 c 1
 528 0 l 1
 203 -1 l 1
 195 69 l 1
EndSplineSet
Colour: ff0000
EndChar

StartChar: X
Encoding: 88 88 91
GlifName: X_
Width: 806
VWidth: 79
Flags: HMW
LayerCount: 3
Back
SplineSet
2 801 m 1
 128 790 247 792 346 800 c 1
 365 736 l 1
 263 735 256.194540883 699.609481624 286 650 c 0
 344.831955102 552.077576323 409 443 418 430 c 1
 411 434 l 1
 479 340 605 56 769 72 c 5
 785 1 l 1
 419 1 l 1
 407 62 l 1
 455 60 524 62 469 152 c 0
 433 210 373 315 329 373 c 1
 337 373 l 1
 294 449 226.399869022 532.103765557 159 632 c 0
 103 715 75 745 12 734 c 5
 2 801 l 1
-6 66 m 5
 91 56 125.249591338 104.639736588 162 147 c 0
 205.176757812 196.767578125 288 330 341 414 c 1
 379 442 l 1
 430 507 495 601 522 653 c 0
 555.903320312 718.295898438 539 730 467 731 c 1
 459 801 l 1
 557 793 674 793 761 801 c 1
 772 739 l 5
 683 749 651.447017002 695.25244891 598 623 c 0
 544 550 464 437 428 385 c 1
 409 372 l 1
 355 313 313 234 270 163 c 1
 245 116 218 61 310 61 c 5
 319 1 l 5
 2 1 l 5
 -6 66 l 5
EndSplineSet
Fore
SplineSet
2 801 m 1
 128 790 247 792 346 800 c 1
 365 736 l 1
 263 735 256.194540883 699.609481624 286 650 c 0
 344.831955102 552.077576323 409 443 418 430 c 1
 411 434 l 1
 479 340 605 56 769 72 c 5
 785 1 l 1
 419 1 l 1
 407 62 l 1
 455 60 524 62 469 152 c 0
 433 210 373 315 329 373 c 1
 337 373 l 1
 294 449 226.399869022 532.103765557 159 632 c 0
 103 715 75 745 12 734 c 5
 2 801 l 1
-6 66 m 5
 91 56 125.249591338 104.639736588 162 147 c 0
 205.176757812 196.767578125 288 330 341 414 c 1
 379 442 l 1
 430 507 495 601 522 653 c 0
 555.903320312 718.295898438 539 730 467 731 c 1
 459 801 l 1
 557 793 674 793 761 801 c 1
 772 739 l 5
 683 749 651.447017002 695.25244891 598 623 c 0
 544 550 464 437 428 385 c 1
 409 372 l 1
 355 313 313 234 270 163 c 1
 245 116 218 61 310 61 c 5
 319 1 l 5
 2 1 l 5
 -6 66 l 5
EndSplineSet
Layer: 2
SplineSet
2 801 m 1
 128 790 247 792 346 800 c 1
 365 736 l 1
 263 735 256.194540883 699.609481624 286 650 c 0
 344.831955102 552.077576323 409 443 418 430 c 1
 411 434 l 1
 479 340 605 56 769 72 c 5
 785 1 l 1
 419 1 l 1
 407 62 l 1
 455 60 524 62 469 152 c 0
 433 210 373 315 329 373 c 1
 337 373 l 1
 294 449 226.399869022 532.103765557 159 632 c 0
 103 715 75 745 12 734 c 5
 2 801 l 1
-6 66 m 5
 91 56 125.249591338 104.639736588 162 147 c 0
 205.176757812 196.767578125 288 330 341 414 c 1
 379 442 l 1
 430 507 495 601 522 653 c 0
 555.903320312 718.295898438 539 730 467 731 c 1
 459 801 l 1
 557 793 674 793 761 801 c 1
 772 739 l 5
 683 749 651.447017002 695.25244891 598 623 c 0
 544 550 464 437 428 385 c 1
 409 372 l 1
 355 313 313 234 270 163 c 1
 245 116 218 61 310 61 c 5
 319 1 l 5
 2 1 l 5
 -6 66 l 5
EndSplineSet
Colour: ff0000
EndChar

StartChar: N
Encoding: 78 78 92
GlifName: N_
Width: 926
VWidth: 79
Flags: HMW
LayerCount: 3
Back
SplineSet
13 69 m 5
 86 54 133 79 138 162 c 4
 146 273 149 479 145 643 c 4
 144 734 98 739 28 729 c 5
 25 745 21 791 19 800 c 5
 118 791 179 790 293 794 c 5
 370 677 656 266 744 140 c 4
 749 132 683 104 688 96 c 5
 706 177 704 518 695 643 c 4
 688 734 646 739 576 729 c 5
 573 745 569 791 567 800 c 5
 633 794 653 791 725 792 c 4
 766 792 836 793 897 801 c 5
 897 801 902 755 905 736 c 5
 854 743 807 720 802 665 c 4
 787 486 790 215 798 0 c 5
 770 -4 753 -5 703 -16 c 5
 701 -17 l 5
 521 255 391 446 242 650 c 5
 230 468 234 186 240 139 c 4
 251 69 307 62 359 69 c 5
 370 0 l 5
 21 -1 l 5
 13 69 l 5
EndSplineSet
Fore
SplineSet
13 69 m 5
 86 54 133 79 138 162 c 4
 146 273 149 479 145 643 c 4
 144 734 98 739 28 729 c 5
 25 745 21 791 19 800 c 5
 118 791 179 790 293 794 c 5
 370 677 656 266 744 140 c 4
 749 132 683 104 688 96 c 5
 706 177 704 518 695 643 c 4
 688 734 646 739 576 729 c 5
 573 745 569 791 567 800 c 5
 633 794 653 791 725 792 c 4
 766 792 836 793 897 801 c 5
 897 801 902 755 905 736 c 5
 854 743 807 720 802 665 c 4
 787 486 790 215 798 0 c 5
 770 -4 753 -5 703 -16 c 5
 701 -17 l 5
 521 255 391 446 242 650 c 5
 230 468 234 186 240 139 c 4
 251 69 307 62 359 69 c 5
 370 0 l 5
 21 -1 l 5
 13 69 l 5
EndSplineSet
Layer: 2
SplineSet
13 69 m 5
 86 54 133 79 138 162 c 4
 146 273 149 479 145 643 c 4
 144 734 98 739 28 729 c 5
 25 745 21 791 19 800 c 5
 118 791 179 790 293 794 c 5
 370 677 656 266 744 140 c 4
 749 132 683 104 688 96 c 5
 706 177 704 518 695 643 c 4
 688 734 646 739 576 729 c 5
 573 745 569 791 567 800 c 5
 633 794 653 791 725 792 c 4
 766 792 836 793 897 801 c 5
 897 801 902 755 905 736 c 5
 854 743 807 720 802 665 c 4
 787 486 790 215 798 0 c 5
 770 -4 753 -5 703 -16 c 5
 701 -17 l 5
 521 255 391 446 242 650 c 5
 230 468 234 186 240 139 c 4
 251 69 307 62 359 69 c 5
 370 0 l 5
 21 -1 l 5
 13 69 l 5
EndSplineSet
EndChar

StartChar: M
Encoding: 77 77 101
GlifName: M_
Width: 1153
VWidth: 79
Flags: HMW
LayerCount: 3
Back
SplineSet
29 800 m 1
 128 791 198 790 312 794 c 1
 345 711 499 404 559 250 c 1
 574 189 592 104 608 66 c 1
 616 16 l 1
 547 -5 l 1
 509 89 290 578 242 650 c 1
 241 641 271 682 270 673 c 0
 260 491 264 183 270 139 c 0
 281 69 337 62 389 69 c 1
 400 0 l 1
 41 -1 l 1
 33 69 l 1
 106 54 163 79 168 162 c 0
 176 273 179 479 175 643 c 0
 174 734 88 739 38 729 c 1
 35 745 31 791 29 800 c 1
541 50 m 1
 650 268 782 677 829 794 c 1
 943 790 1018 791 1117 800 c 1
 1121 771 1124 745 1128 729 c 1
 1058 739 1001 734 1000 643 c 0
 996 479 999 273 1007 162 c 0
 1012 79 1053 54 1126 69 c 1
 1138 -1 l 1
 749 0 l 5
 740 69 l 5
 792 62 859 69 870 139 c 0
 876 186 880 518 868 700 c 1
 861 690 908 738 901 728 c 1
 807 555 728 265 617 16 c 1
 541 50 l 1
EndSplineSet
Fore
SplineSet
29 800 m 1
 128 791 198 790 312 794 c 1
 345 711 499 404 559 250 c 1
 574 189 592 104 608 66 c 1
 616 16 l 1
 547 -5 l 1
 509 89 290 578 242 650 c 1
 241 641 271 682 270 673 c 0
 260 491 264 183 270 139 c 0
 281 69 337 62 389 69 c 1
 400 0 l 1
 41 -1 l 1
 33 69 l 1
 106 54 163 79 168 162 c 0
 176 273 179 479 175 643 c 0
 174 734 88 739 38 729 c 1
 35 745 31 791 29 800 c 1
541 50 m 1
 650 268 782 677 829 794 c 1
 943 790 1018 791 1117 800 c 1
 1121 771 1124 745 1128 729 c 1
 1058 739 1001 734 1000 643 c 0
 996 479 999 273 1007 162 c 0
 1012 79 1053 54 1126 69 c 1
 1138 -1 l 1
 749 0 l 5
 740 69 l 5
 792 62 859 69 870 139 c 0
 876 186 880 518 868 700 c 1
 861 690 908 738 901 728 c 1
 807 555 728 265 617 16 c 1
 541 50 l 1
EndSplineSet
Layer: 2
SplineSet
29 800 m 1
 128 791 198 790 312 794 c 1
 345 711 499 404 559 250 c 1
 574 189 592 104 608 66 c 1
 616 16 l 1
 547 -5 l 1
 509 89 290 578 242 650 c 1
 241 641 271 682 270 673 c 0
 260 491 264 183 270 139 c 0
 281 69 337 62 389 69 c 1
 400 0 l 1
 41 -1 l 1
 33 69 l 1
 106 54 163 79 168 162 c 0
 176 273 179 479 175 643 c 0
 174 734 88 739 38 729 c 1
 35 745 31 791 29 800 c 1
541 50 m 1
 650 268 782 677 829 794 c 1
 943 790 1018 791 1117 800 c 1
 1121 771 1124 745 1128 729 c 1
 1058 739 1001 734 1000 643 c 0
 996 479 999 273 1007 162 c 0
 1012 79 1053 54 1126 69 c 1
 1138 -1 l 1
 749 0 l 5
 740 69 l 5
 792 62 859 69 870 139 c 0
 876 186 880 518 868 700 c 1
 861 690 908 738 901 728 c 1
 807 555 728 265 617 16 c 1
 541 50 l 1
EndSplineSet
EndChar

StartChar: grave
Encoding: 96 96 102
GlifName: grave
Width: 496
VWidth: 0
Flags: HMW
LayerCount: 3
Back
SplineSet
73 920 m 9
 83 866 l 17
 191 881 368 958 431 1004 c 9
 371 1098 l 17
 308 1032 165 942 73 920 c 9
EndSplineSet
Fore
SplineSet
73 920 m 9
 83 866 l 17
 191 881 368 958 431 1004 c 9
 371 1098 l 17
 308 1032 165 942 73 920 c 9
EndSplineSet
Layer: 2
SplineSet
73 920 m 13
 83 866 l 21
 191 881 368 958 431 1004 c 13
 371 1098 l 21
 308 1032 165 942 73 920 c 13
EndSplineSet
EndChar

StartChar: question
Encoding: 63 63 104
GlifName: question
Width: 542
VWidth: 153
Flags: HMW
LayerCount: 3
Back
SplineSet
80 732 m 1
 192 732 l 1
 182 697 175 627 172 592 c 1
 87 580 l 1
 79 612 75 697 80 732 c 1
80 732 m 1
 133 765 220 801 307 801 c 0
 426 801 524 734 496 580 c 0
 461 393 298 345 213 318 c 1
 208 310 261 378 261 364 c 0
 261 299 276 219 280 198 c 1
 167 196 l 1
 168 233 167 340 168 364 c 1
 220 377 362 400 383 532 c 0
 400 636 356 722 232 732 c 0
 178 736 135 710 105 693 c 1
 80 732 l 1
EndSplineSet
Refer: 11 46 N 1 0 0 1 117 2 2
Fore
SplineSet
80 732 m 1
 192 732 l 1
 182 697 175 627 172 592 c 1
 87 580 l 1
 79 612 75 697 80 732 c 1
80 732 m 1
 133 765 220 801 307 801 c 0
 426 801 524 734 496 580 c 0
 461 393 298 345 213 318 c 1
 208 310 261 378 261 364 c 0
 261 299 276 219 280 198 c 1
 167 196 l 1
 168 233 167 340 168 364 c 1
 220 377 362 400 383 532 c 0
 400 636 356 722 232 732 c 0
 178 736 135 710 105 693 c 1
 80 732 l 1
EndSplineSet
Refer: 11 46 N 1 0 0 1 117 2 2
Layer: 2
SplineSet
80 732 m 1
 192 732 l 1
 182 697 175 627 172 592 c 1
 87 580 l 1
 79 612 75 697 80 732 c 1
80 732 m 1
 133 765 220 801 307 801 c 0
 426 801 524 734 496 580 c 0
 461 393 298 345 213 318 c 1
 208 310 261 378 261 364 c 0
 261 299 276 219 280 198 c 1
 167 196 l 1
 168 233 167 340 168 364 c 1
 220 377 362 400 383 532 c 0
 400 636 356 722 232 732 c 0
 178 736 135 710 105 693 c 1
 80 732 l 1
EndSplineSet
Refer: 11 46 N 1 0 0 1 117 2 2
EndChar

StartChar: quotesingle
Encoding: 39 39 105
GlifName: quotesingle
Width: 192
VWidth: 79
Flags: HMW
LayerCount: 3
Back
SplineSet
22 746 m 4
 20 792 54 822 92 822 c 4
 138 822 162 795 162 756 c 4
 162 717 139 688 102 679 c 5
 83 688 24 698 22 746 c 4
41 596 m 5
 47 607 72 659 58 730 c 13
 114 757 l 29
 124 725 163 787 162 756 c 4
 160 703 94 595 69 575 c 5
 41 596 l 5
EndSplineSet
Fore
SplineSet
22 746 m 4
 20 792 54 822 92 822 c 4
 138 822 162 795 162 756 c 4
 162 717 139 688 102 679 c 5
 83 688 24 698 22 746 c 4
41 596 m 5
 47 607 72 659 58 730 c 13
 114 757 l 29
 124 725 163 787 162 756 c 4
 160 703 94 595 69 575 c 5
 41 596 l 5
EndSplineSet
Layer: 2
SplineSet
22 746 m 4
 20 792 54 822 92 822 c 4
 138 822 162 795 162 756 c 4
 162 717 139 688 102 679 c 5
 83 688 24 698 22 746 c 4
41 596 m 5
 47 607 72 659 58 730 c 13
 114 757 l 29
 124 725 163 787 162 756 c 4
 160 703 94 595 69 575 c 5
 41 596 l 5
EndSplineSet
EndChar

StartChar: exclam
Encoding: 33 33 149
GlifName: exclam
Width: 330
VWidth: 153
Flags: HMW
LayerCount: 3
Back
SplineSet
89 752 m 1
 116 776 173 793 207 791 c 5
 207 791 220 759 221 697 c 0
 222 531 197 414 175 211 c 1
 102 206 l 1
 115 399 117 580 89 752 c 1
EndSplineSet
Refer: 11 46 N 1 0 0 1 39 -10 2
Fore
SplineSet
89 752 m 1
 116 776 173 793 207 791 c 5
 207 791 220 759 221 697 c 0
 222 531 197 414 175 211 c 1
 102 206 l 1
 115 399 117 580 89 752 c 1
EndSplineSet
Refer: 11 46 N 1 0 0 1 39 -10 2
Layer: 2
SplineSet
89 752 m 1
 116 776 173 793 207 791 c 5
 207 791 220 759 221 697 c 0
 222 531 197 414 175 211 c 1
 102 206 l 1
 115 399 117 580 89 752 c 1
EndSplineSet
Refer: 11 46 N 1 0 0 1 39 -10 2
EndChar

StartChar: parenright
Encoding: 41 41 150
GlifName: parenright
Width: 371
VWidth: 153
Flags: HMW
LayerCount: 3
Back
SplineSet
52 -95 m 1
 133 37 189.716796875 241.00390625 192 402 c 0
 194 543 163 696 69 814 c 5
 131 865 l 5
 184 817 292 683 307 489 c 0
 325 262 237 54 117 -133 c 1
 52 -95 l 1
EndSplineSet
Fore
SplineSet
52 -95 m 1
 133 37 189.716796875 241.00390625 192 402 c 0
 194 543 163 696 69 814 c 5
 131 865 l 5
 184 817 292 683 307 489 c 0
 325 262 237 54 117 -133 c 1
 52 -95 l 1
EndSplineSet
Layer: 2
SplineSet
52 -95 m 1
 133 37 189.716796875 241.00390625 192 402 c 0
 194 543 163 696 69 814 c 5
 131 865 l 5
 184 817 292 683 307 489 c 0
 325 262 237 54 117 -133 c 1
 52 -95 l 1
EndSplineSet
EndChar

StartChar: parenleft
Encoding: 40 40 151
GlifName: parenleft
Width: 371
VWidth: 153
Flags: HMW
LayerCount: 3
Back
SplineSet
81 235 m 0
 63 462 145 696 265 883 c 1
 336 849 l 1
 255 717 199 483 201 322 c 0
 202 191 215 18 319 -110 c 1
 257 -164 l 1
 199 -118 96 41 81 235 c 0
EndSplineSet
Fore
SplineSet
81 235 m 0
 63 462 145 696 265 883 c 1
 336 849 l 1
 255 717 199 483 201 322 c 0
 202 191 215 18 319 -110 c 1
 257 -164 l 1
 199 -118 96 41 81 235 c 0
EndSplineSet
Layer: 2
SplineSet
81 235 m 0
 63 462 145 696 265 883 c 1
 336 849 l 1
 255 717 199 483 201 322 c 0
 202 191 215 18 319 -110 c 1
 257 -164 l 1
 199 -118 96 41 81 235 c 0
EndSplineSet
EndChar

StartChar: hyphen
Encoding: 45 45 152
GlifName: hyphen
Width: 520
VWidth: 153
Flags: W
HStem: 328 105<53 221.508 325.996 470.42>
LayerCount: 3
Back
SplineSet
39 328 m 1
 53 433 l 1
 246 423 308 423 480 433 c 1
 478 406 472 362 470 328 c 1
 39 328 l 1
EndSplineSet
Fore
SplineSet
39 328 m 1
 53 433 l 1
 246 423 308 423 480 433 c 1
 478 406 472 362 470 328 c 1
 39 328 l 1
EndSplineSet
Layer: 2
SplineSet
39 328 m 1
 53 433 l 1
 246 423 308 423 480 433 c 1
 478 406 472 362 470 328 c 1
 39 328 l 1
EndSplineSet
EndChar

StartChar: underscore
Encoding: 95 95 153
GlifName: underscore
Width: 669
VWidth: 153
Flags: W
HStem: 1 95<53 265.407 431.097 619.42>
LayerCount: 3
Back
SplineSet
39 1 m 5
 53 96 l 5
 246 86 457 86 629 96 c 5
 627 69 621 35 619 1 c 5
 39 1 l 5
EndSplineSet
Fore
SplineSet
39 1 m 5
 53 96 l 5
 246 86 457 86 629 96 c 5
 627 69 621 35 619 1 c 5
 39 1 l 5
EndSplineSet
Layer: 2
SplineSet
39 1 m 5
 53 96 l 5
 246 86 457 86 629 96 c 5
 627 69 621 35 619 1 c 5
 39 1 l 5
EndSplineSet
EndChar

StartChar: emdash
Encoding: 307 8212 154
GlifName: emdash
Width: 669
VWidth: 153
Flags: W
HStem: 328 95<53 265.407 431.097 619.42>
LayerCount: 3
Back
SplineSet
39 328 m 1
 53 423 l 1
 246 413 457 413 629 423 c 1
 627 396 621 362 619 328 c 1
 39 328 l 1
EndSplineSet
Fore
SplineSet
39 328 m 1
 53 423 l 1
 246 413 457 413 629 423 c 1
 627 396 621 362 619 328 c 1
 39 328 l 1
EndSplineSet
Layer: 2
SplineSet
39 328 m 1
 53 423 l 1
 246 413 457 413 629 423 c 1
 627 396 621 362 619 328 c 1
 39 328 l 1
EndSplineSet
EndChar

